<svg width="42" height="42" viewBox="0 0 42 42" fill="none" xmlns="http://www.w3.org/2000/svg">
<path fill-rule="evenodd" clip-rule="evenodd" d="M21 1.75C10.3685 1.75 1.75 10.3685 1.75 21C1.75 31.6314 10.3685 40.25 21 40.25C31.6314 40.25 40.25 31.6314 40.25 21C40.25 10.3685 31.6314 1.75 21 1.75ZM5.25 21C5.25 29.6986 12.3015 36.75 21 36.75C29.6986 36.75 36.75 29.6986 36.75 21C36.75 12.3015 29.6986 5.25 21 5.25C12.3015 5.25 5.25 12.3015 5.25 21ZM10.5 21.1243L17.9245 28.549L30.299 16.1746L27.8241 13.6997L17.9245 23.5993L12.9749 18.6494L10.5 21.1243Z" fill="#434343"/>
</svg>
