<svg width="41" height="42" viewBox="0 0 41 42" fill="none" xmlns="http://www.w3.org/2000/svg">
<path fill-rule="evenodd" clip-rule="evenodd" d="M18.7917 32.9584V38.0834H22.2083V32.9584H23.9167C27.6905 32.9584 30.75 29.8989 30.75 26.125C30.75 22.3511 27.6905 19.2917 23.9167 19.2917H22.2083V12.4584H25.625V15.875H29.0417V9.04169H22.2083V3.91669H18.7917V9.04169H17.0833C13.3094 9.04169 10.25 12.1011 10.25 15.875C10.25 19.6489 13.3094 22.7084 17.0833 22.7084H18.7917V29.5417H15.375V26.125H11.9583V32.9584H18.7917ZM22.2083 29.5417H23.9167C25.8037 29.5417 27.3333 28.012 27.3333 26.125C27.3333 24.238 25.8037 22.7084 23.9167 22.7084H22.2083V29.5417ZM18.7917 19.2917V12.4584H17.0833C15.1964 12.4584 13.6667 13.988 13.6667 15.875C13.6667 17.762 15.1964 19.2917 17.0833 19.2917H18.7917Z" fill="#A4A4A4"/>
</svg>
