<svg width="42" height="42" viewBox="0 0 42 42" fill="none" xmlns="http://www.w3.org/2000/svg">
<path fill-rule="evenodd" clip-rule="evenodd" d="M36.75 21.0101C35.7835 21.0101 35 21.7936 35 22.7601V33.2601C35 34.2266 34.2165 35.0101 33.25 35.0101H8.75C7.7835 35.0101 7 34.2266 7 33.2601V8.76015C7 7.79365 7.7835 7.01015 8.75 7.01015H19.25C20.2165 7.01015 21 6.22665 21 5.26015C21 4.29365 20.2165 3.51015 19.25 3.51015H8.75C5.85051 3.51015 3.5 5.86065 3.5 8.76015V33.2601C3.5 36.1596 5.85051 38.5101 8.75 38.5101H33.25C36.1495 38.5101 38.5 36.1596 38.5 33.2601V22.7601C38.5 21.7936 37.7165 21.0101 36.75 21.0101ZM10.5 22.3401V29.7601C10.5 30.7266 11.2835 31.5101 12.25 31.5101H19.67C20.1352 31.5128 20.5822 31.3302 20.9125 31.0026L33.0225 18.8751L37.9925 14.0101C38.3238 13.6816 38.5101 13.2343 38.5101 12.7676C38.5101 12.301 38.3238 11.8537 37.9925 11.5251L30.5725 4.01765C30.2439 3.68635 29.7966 3.5 29.33 3.5C28.8634 3.5 28.4161 3.68635 28.0875 4.01765L23.1525 8.97015L11.0075 21.0976C10.6799 21.4279 10.4973 21.875 10.5 22.3401ZM29.33 7.72765L34.2825 12.6801L31.7975 15.1651L26.845 10.2126L29.33 7.72765ZM14 23.0576L24.3775 12.6801L29.33 17.6326L18.9525 28.0101H14V23.0576Z" fill="#A4A4A4"/>
</svg>
