<svg width="42" height="42" viewBox="0 0 42 42" fill="none" xmlns="http://www.w3.org/2000/svg">
<path fill-rule="evenodd" clip-rule="evenodd" d="M41.3382 21C39.007 11.9426 30.785 5.25 20.9998 5.25C11.2146 5.25 2.9926 11.9426 0.661377 21C2.9926 30.0575 11.2146 36.75 20.9998 36.75C30.785 36.75 39.007 30.0575 41.3382 21ZM4.29994 21C6.5296 28.1017 13.1675 33.25 20.9998 33.25C28.8319 33.25 35.47 28.1017 37.6995 21C35.47 13.8983 28.8319 8.75 20.9998 8.75C13.1675 8.75 6.5296 13.8983 4.29994 21ZM20.9998 28C24.8657 28 27.9998 24.8659 27.9998 21C27.9998 17.134 24.8657 14 20.9998 14C17.1338 14 13.9998 17.134 13.9998 21C13.9998 24.8659 17.1338 28 20.9998 28ZM20.9998 24.5C22.9327 24.5 24.4998 22.9331 24.4998 21C24.4998 19.0669 22.9327 17.5 20.9998 17.5C19.0668 17.5 17.4998 19.0669 17.4998 21C17.4998 22.9331 19.0668 24.5 20.9998 24.5Z" fill="#A4A4A4"/>
</svg>
