<svg width="42" height="42" viewBox="0 0 42 42" fill="none" xmlns="http://www.w3.org/2000/svg">
<path fill-rule="evenodd" clip-rule="evenodd" d="M5.25 8.75C5.25 5.85051 7.60051 3.5 10.5 3.5H24.5C31.2655 3.5 36.75 8.98452 36.75 15.75V33.25C36.75 36.1496 34.3996 38.5 31.5 38.5H10.5C7.60051 38.5 5.25 36.1496 5.25 33.25V8.75ZM22.75 7H10.5C9.53351 7 8.75 7.78351 8.75 8.75V33.25C8.75 34.2165 9.53351 35 10.5 35H31.5C32.4665 35 33.25 34.2165 33.25 33.25V15.75H22.75V7ZM32.522 12.25C31.3973 9.67586 29.0698 7.74743 26.25 7.17503V12.25H32.522Z" fill="#A4A4A4"/>
</svg>
