<svg width="42" height="42" viewBox="0 0 42 42" fill="none" xmlns="http://www.w3.org/2000/svg">
<path fill-rule="evenodd" clip-rule="evenodd" d="M3.5 10.5C3.5 7.60051 5.85051 5.25 8.75 5.25H33.25C36.1496 5.25 38.5 7.60051 38.5 10.5V31.5C38.5 34.3996 36.1496 36.75 33.25 36.75H8.75C5.85051 36.75 3.5 34.3996 3.5 31.5V10.5ZM8.75 8.75H33.25C34.2165 8.75 35 9.53351 35 10.5V27.451L30.5113 21.2125C28.4611 19.1621 25.137 19.1621 23.0867 21.2125L12.799 33.25H8.75C7.78351 33.25 7 32.4665 7 31.5V10.5C7 9.53351 7.78351 8.75 8.75 8.75ZM17.7489 33.25H33.25C33.9528 33.25 34.5588 32.8358 34.8372 32.238L28.0364 23.6873C27.353 23.0037 26.2449 23.0037 25.5616 23.6873L17.7489 33.25ZM10.5 17.5C10.5 14.6005 12.8505 12.25 15.75 12.25C18.6495 12.25 21 14.6005 21 17.5C21 20.3996 18.6495 22.75 15.75 22.75C12.8505 22.75 10.5 20.3996 10.5 17.5ZM15.75 15.75C14.7835 15.75 14 16.5335 14 17.5C14 18.4665 14.7835 19.25 15.75 19.25C16.7165 19.25 17.5 18.4665 17.5 17.5C17.5 16.5335 16.7165 15.75 15.75 15.75Z" fill="#7B53E7"/>
</svg>
