<svg width="42" height="42" viewBox="0 0 42 42" fill="none" xmlns="http://www.w3.org/2000/svg">
<path fill-rule="evenodd" clip-rule="evenodd" d="M21 36.75C29.6986 36.75 36.75 29.6986 36.75 21C36.75 12.3015 29.6986 5.25 21 5.25C12.3015 5.25 5.25 12.3015 5.25 21C5.25 29.6986 12.3015 36.75 21 36.75ZM25.9096 32.2264C29.9649 30.4505 32.8732 26.5417 33.216 21.9187C31.776 22.7041 29.96 23.3481 27.8899 23.7965C27.6294 27.0683 26.9197 29.9899 25.9096 32.2264ZM16.0904 9.77352C12.6827 11.2659 10.0848 14.2644 9.13864 17.927C9.54398 18.3117 10.2342 18.7847 11.2846 19.2514C12.07 19.6005 12.9859 19.9147 14.0094 20.177C14.1024 16.1102 14.8811 12.4511 16.0904 9.77352ZM17.6761 24.3439C17.9503 26.8931 18.5241 29.0854 19.2486 30.7155C19.7631 31.8733 20.2853 32.5934 20.6882 32.9768C20.8315 33.1133 20.9351 33.1859 21 33.2234C21.0649 33.1859 21.1685 33.1133 21.3118 32.9768C21.7147 32.5934 22.2369 31.8733 22.7514 30.7155C23.4759 29.0854 24.0497 26.8931 24.3239 24.3439C23.2524 24.4461 22.1403 24.5 21 24.5C19.8597 24.5 18.7476 24.4461 17.6761 24.3439ZM14.11 23.7965C14.3706 27.0683 15.0803 29.9899 16.0904 32.2264C12.0351 30.4505 9.12669 26.5415 8.78393 21.9187C10.224 22.7041 12.04 23.3481 14.11 23.7965ZM24.4995 20.8068C23.3958 20.9316 22.2238 21 21 21C19.7764 21 18.6042 20.9316 17.5005 20.8068C17.5236 16.9121 18.2401 13.5538 19.2486 11.2846C19.7631 10.1268 20.2853 9.40653 20.6882 9.02309C20.8315 8.88671 20.9351 8.81403 21 8.77653C21.0649 8.81403 21.1685 8.88671 21.3118 9.02309C21.7147 9.40653 22.2369 10.1268 22.7514 11.2846C23.7599 13.5538 24.4764 16.9121 24.4995 20.8068ZM27.9906 20.177C27.8976 16.1102 27.1189 12.4511 25.9096 9.77352C29.3174 11.2659 31.9153 14.2644 32.8613 17.927C32.456 18.3117 31.7658 18.7847 30.7155 19.2514C29.9301 19.6005 29.0141 19.9147 27.9906 20.177Z" fill="#7B53E7"/>
</svg>
