<svg width="36" height="32" viewBox="0 0 36 32" fill="none" xmlns="http://www.w3.org/2000/svg">
<path fill-rule="evenodd" clip-rule="evenodd" d="M0.5 5.5C0.5 2.60051 2.85051 0.25 5.75 0.25H30.25C33.1496 0.25 35.5 2.60051 35.5 5.5V26.5C35.5 29.3996 33.1496 31.75 30.25 31.75H5.75C2.85051 31.75 0.5 29.3996 0.5 26.5V5.5ZM5.75 3.75H30.25C31.2165 3.75 32 4.53351 32 5.5V22.451L27.5113 16.2125C25.4611 14.1621 22.137 14.1621 20.0867 16.2125L9.79904 28.25H5.75C4.78351 28.25 4 27.4665 4 26.5V5.5C4 4.53351 4.78351 3.75 5.75 3.75ZM14.7489 28.25H30.25C30.9528 28.25 31.5588 27.8358 31.8372 27.238L25.0364 18.6873C24.353 18.0037 23.2449 18.0037 22.5616 18.6873L14.7489 28.25ZM7.5 12.5C7.5 9.60051 9.85051 7.25 12.75 7.25C15.6495 7.25 18 9.60051 18 12.5C18 15.3996 15.6495 17.75 12.75 17.75C9.85051 17.75 7.5 15.3996 7.5 12.5ZM12.75 10.75C11.7835 10.75 11 11.5335 11 12.5C11 13.4665 11.7835 14.25 12.75 14.25C13.7165 14.25 14.5 13.4665 14.5 12.5C14.5 11.5335 13.7165 10.75 12.75 10.75Z" fill="#A4A4A4"/>
</svg>
