<svg width="14" height="14" viewBox="0 0 14 14" fill="none" xmlns="http://www.w3.org/2000/svg">
<path fill-rule="evenodd" clip-rule="evenodd" d="M10.1472 9.31938C11.5803 7.47886 11.4508 4.81607 9.7589 3.1241C7.92675 1.29197 4.95625 1.29197 3.12411 3.1241C1.29196 4.95624 1.29196 7.92672 3.12411 9.75886C4.81608 11.4508 7.47889 11.5803 9.31942 10.1472C9.32734 10.1562 9.33561 10.165 9.34417 10.1735L11.8322 12.6615C12.0612 12.8906 12.4326 12.8906 12.6616 12.6615C12.8906 12.4325 12.8906 12.0613 12.6616 11.8322L10.1736 9.34419C10.1649 9.33563 10.1561 9.32736 10.1472 9.31938ZM8.89152 3.9418C10.2584 5.30863 10.2584 7.52469 8.89152 8.89156C7.52471 10.2584 5.30863 10.2584 3.94179 8.89156C2.57496 7.52469 2.57496 5.30863 3.94179 3.9418C5.30863 2.57496 7.52471 2.57496 8.89152 3.9418Z" fill="#8F92A1"/>
</svg>
