<svg width="11" height="6" viewBox="0 0 11 6" fill="none" xmlns="http://www.w3.org/2000/svg">
<path d="M0.226901 5.75258C0.299946 5.83098 0.386848 5.8932 0.482598 5.93567C0.578347 5.97814 0.681048 6 0.784775 6C0.888502 6 0.991202 5.97814 1.08695 5.93567C1.1827 5.8932 1.2696 5.83098 1.34265 5.75258L4.94133 1.92163C5.01438 1.84323 5.10128 1.781 5.19703 1.73854C5.29278 1.69607 5.39548 1.67421 5.49921 1.67421C5.60293 1.67421 5.70563 1.69607 5.80138 1.73854C5.89713 1.781 5.98404 1.84323 6.05708 1.92163L9.65576 5.75258C9.72881 5.83098 9.81571 5.89321 9.91146 5.93567C10.0072 5.97814 10.1099 6 10.2136 6C10.3174 6 10.4201 5.97814 10.5158 5.93567C10.6116 5.89321 10.6985 5.83098 10.7715 5.75258C10.9179 5.59586 11 5.38386 11 5.16288C11 4.9419 10.9179 4.7299 10.7715 4.57318L7.16497 0.733869C6.72299 0.263949 6.12387 -4.26285e-07 5.49921 -4.80895e-07C4.87454 -5.35505e-07 4.27542 0.263949 3.83344 0.733869L0.226901 4.57318C0.080557 4.7299 -0.00158682 4.9419 -0.00158684 5.16288C-0.00158686 5.38386 0.0805569 5.59586 0.226901 5.75258Z" fill="#7B53E7"/>
</svg>
