<svg width="16" height="16" viewBox="0 0 16 16" fill="none" xmlns="http://www.w3.org/2000/svg">
<path fill-rule="evenodd" clip-rule="evenodd" d="M8 0C3.58172 0 0 3.58172 0 8C0 12.4182 3.58172 16 8 16C12.4182 16 16 12.4182 16 8C16 3.58172 12.4182 0 8 0ZM8.00221 3.24081C7.56037 3.24081 7.20221 3.59898 7.20221 4.04081C7.20221 4.48263 7.56037 4.84081 8.00221 4.84081C8.44405 4.84081 8.80221 4.48263 8.80221 4.04081C8.80221 3.59898 8.44405 3.24081 8.00221 3.24081ZM8.00221 6.38373C7.56037 6.38373 7.20221 6.74192 7.20221 7.18376V11.9838C7.20221 12.4256 7.56037 12.7838 8.00221 12.7838C8.44405 12.7838 8.80221 12.4256 8.80221 11.9838V7.18376C8.80221 6.74192 8.44405 6.38373 8.00221 6.38373Z" fill="#54AA72"/>
</svg>
