<svg width="18" height="18" viewBox="0 0 18 18" fill="none" xmlns="http://www.w3.org/2000/svg">
<g clip-path="url(#clip0_2835_3286)">
<path d="M18.0039 9C18.0039 13.9705 13.9744 18 9.00391 18C4.03337 18 0.00390625 13.9705 0.00390625 9C0.00390625 9.00211 9.00391 0.00101953 9.00391 0C13.9744 0 18.0039 4.02947 18.0039 9Z" fill="#0052B4"/>
<path d="M8.98047 9.00016H9.00455C9.00455 8.992 9.00455 8.9842 9.00455 8.97607C8.99654 8.98413 8.98852 8.99214 8.98047 9.00016Z" fill="#F0F0F0"/>
<path d="M9.00391 4.69564C9.00391 3.11203 9.00391 2.07432 9.00391 0H9.00239C4.03253 0.000808594 0.00390625 4.02989 0.00390625 8.99996H4.69955V6.35579L7.34372 8.99996H8.97986C8.98791 8.99195 8.99593 8.98393 9.00394 8.97588C9.00394 8.36954 9.00394 7.82852 9.00394 7.33985L6.35973 4.69564H9.00391Z" fill="#F0F0F0"/>
<path d="M4.55709 1.17383C3.14947 1.97536 1.97926 3.14557 1.17773 4.55319V8.99993H3.52557V3.5217V3.52167H9.00383C9.00383 2.78117 9.00383 2.07573 9.00383 1.17383H4.55709Z" fill="#D80027"/>
<path d="M9.00354 7.89335L5.80597 4.69582H4.69922C4.69922 4.69578 4.69922 4.69582 4.69922 4.69582L9.0035 9.0001H9.00354C9.00354 9.0001 9.00354 8.23704 9.00354 7.89335Z" fill="#D80027"/>
<path d="M5.43261 10.5654L5.92655 11.5982L7.04195 11.3404L6.54245 12.3706L7.43943 13.0819L6.32262 13.3336L6.32575 14.4785L5.43261 13.7622L4.5395 14.4785L4.54263 13.3336L3.42578 13.0819L4.32279 12.3706L3.82322 11.3404L4.9387 11.5982L5.43261 10.5654Z" fill="#F0F0F0"/>
<path d="M13.48 12.522L13.7269 13.0384L14.2846 12.9095L14.0349 13.4245L14.4834 13.7802L13.925 13.9061L13.9265 14.4785L13.48 14.1204L13.0334 14.4785L13.0349 13.9061L12.4766 13.7802L12.9251 13.4245L12.6753 12.9095L13.233 13.0384L13.48 12.522Z" fill="#F0F0F0"/>
<path d="M11.1812 7.04346L11.4281 7.5599L11.9858 7.43095L11.7361 7.94602L12.1846 8.3017L11.6262 8.42756L11.6277 8.99997L11.1812 8.64184L10.7346 8.99997L10.7361 8.42756L10.1777 8.3017L10.6262 7.94602L10.3765 7.43095L10.9342 7.5599L11.1812 7.04346Z" fill="#F0F0F0"/>
<path d="M13.48 3.91309L13.7269 4.42953L14.2846 4.30061L14.0349 4.81569L14.4834 5.17133L13.925 5.29722L13.9265 5.86964L13.48 5.5115L13.0334 5.86964L13.0349 5.29722L12.4766 5.17133L12.925 4.81569L12.6753 4.30061L13.233 4.42953L13.48 3.91309Z" fill="#F0F0F0"/>
<path d="M15.4859 6.26074L15.7328 6.77719L16.2905 6.64823L16.0408 7.16331L16.4892 7.51898L15.9308 7.64488L15.9324 8.21726L15.4859 7.85916L15.0393 8.21726L15.0408 7.64488L14.4824 7.51898L14.9309 7.16331L14.6812 6.64823L15.2388 6.77719L15.4859 6.26074Z" fill="#F0F0F0"/>
<path d="M14.0514 9L14.2457 9.59787H14.8743L14.3657 9.96739L14.56 10.5652L14.0514 10.1957L13.5428 10.5652L13.7371 9.96739L13.2285 9.59787H13.8571L14.0514 9Z" fill="#F0F0F0"/>
</g>
<defs>
<clipPath id="clip0_2835_3286">
<rect width="18" height="18" fill="white" transform="translate(0.00390625)"/>
</clipPath>
</defs>
</svg>
