<svg width="18" height="18" viewBox="0 0 18 18" fill="none" xmlns="http://www.w3.org/2000/svg">
<g clip-path="url(#clip0_2835_3197)">
<path d="M9 18C13.9706 18 18 13.9706 18 9C18 4.02944 13.9706 0 9 0C4.02944 0 0 4.02944 0 9C0 13.9706 4.02944 18 9 18Z" fill="#0052B4"/>
<path d="M8.99996 3.52197L9.29137 4.41877H10.2343L9.47141 4.97301L9.76282 5.86981L8.99996 5.31554L8.23707 5.86981L8.52848 4.97301L7.76562 4.41877H8.70855L8.99996 3.52197Z" fill="#FFDA44"/>
<path d="M5.12532 5.12634L5.96556 5.5544L6.6323 4.8877L6.48475 5.81898L7.32495 6.24708L6.39362 6.3946L6.24611 7.32596L5.81801 6.48576L4.88672 6.63331L5.55346 5.96657L5.12532 5.12634Z" fill="#FFDA44"/>
<path d="M3.52148 9.00045L4.41829 8.70904V7.76611L4.97249 8.529L5.86932 8.23759L5.31502 9.00045L5.86932 9.7633L4.97249 9.47193L4.41829 10.2348V9.29186L3.52148 9.00045Z" fill="#FFDA44"/>
<path d="M5.12532 12.8739L5.55342 12.0337L4.88672 11.3669L5.81804 11.5145L6.24607 10.6743L6.39362 11.6056L7.32491 11.7532L6.48482 12.1813L6.6323 13.1125L5.96556 12.4458L5.12532 12.8739Z" fill="#FFDA44"/>
<path d="M8.99996 14.4786L8.70852 13.5818H7.76562L8.52852 13.0276L8.23707 12.1309L8.99996 12.6851L9.76282 12.1309L9.47141 13.0276L10.2343 13.5818H9.29134L8.99996 14.4786Z" fill="#FFDA44"/>
<path d="M12.8734 12.8739L12.0332 12.4458L11.3664 13.1126L11.514 12.1812L10.6738 11.7532L11.6051 11.6056L11.7526 10.6743L12.1807 11.5145L13.112 11.3669L12.4452 12.0337L12.8734 12.8739Z" fill="#FFDA44"/>
<path d="M14.4786 9.00045L13.5818 9.29186V10.2348L13.0276 9.47189L12.1309 9.7633L12.6851 9.00045L12.1309 8.23759L13.0276 8.529L13.5818 7.76611V8.70907L14.4786 9.00045Z" fill="#FFDA44"/>
<path d="M12.8734 5.1263L12.4453 5.96654L13.112 6.63327L12.1807 6.48569L11.7526 7.32589L11.6051 6.39456L10.6738 6.24701L11.514 5.81895L11.3664 4.8877L12.0332 5.5544L12.8734 5.1263Z" fill="#FFDA44"/>
</g>
<defs>
<clipPath id="clip0_2835_3197">
<rect width="18" height="18" fill="white"/>
</clipPath>
</defs>
</svg>
