<svg width="61" height="55" viewBox="0 0 61 55" fill="none" xmlns="http://www.w3.org/2000/svg">
<path opacity="0.4" d="M56.4173 27.4997C56.4173 40.1588 46.1575 50.4163 33.5006 50.4163C20.8438 50.4163 10.584 40.1588 10.584 27.4997C10.584 14.8451 20.8438 4.58301 33.5006 4.58301C46.1575 4.58301 56.4173 14.8451 56.4173 27.4997Z" fill="#7B53E7"/>
<path d="M41.6882 36.2407C41.3879 36.2407 41.0854 36.1628 40.8082 36.0001L31.8111 30.633C31.2932 30.3214 30.9746 29.7599 30.9746 29.1549V17.5889C30.9746 16.6401 31.7446 15.8701 32.6934 15.8701C33.6421 15.8701 34.4121 16.6401 34.4121 17.5889V28.1787L42.5704 33.0439C43.384 33.532 43.6521 34.5862 43.1663 35.402C42.8432 35.9405 42.2725 36.2407 41.6882 36.2407Z" fill="#7B53E7"/>
<rect y="24" width="25" height="16" rx="5" fill="#7B53E7"/>
<path d="M7.492 35V33.83H4.387V32.912L7.339 28.7H8.644V32.831H9.472V33.83H8.644V35H7.492ZM5.62 32.831H7.564V29.969L5.62 32.831ZM12.6006 35.108C12.1686 35.108 11.7786 35.033 11.4306 34.883C11.0826 34.727 10.8036 34.508 10.5936 34.226C10.3896 33.944 10.2876 33.617 10.2876 33.245C10.2876 32.861 10.3866 32.525 10.5846 32.237C10.7886 31.949 11.0556 31.742 11.3856 31.616C11.0976 31.49 10.8696 31.31 10.7016 31.076C10.5336 30.836 10.4496 30.569 10.4496 30.275C10.4496 29.975 10.5306 29.699 10.6926 29.447C10.8546 29.189 11.0946 28.982 11.4126 28.826C11.7366 28.67 12.1326 28.592 12.6006 28.592C13.0686 28.592 13.4616 28.67 13.7796 28.826C14.0976 28.982 14.3376 29.189 14.4996 29.447C14.6616 29.699 14.7426 29.975 14.7426 30.275C14.7426 30.563 14.6556 30.83 14.4816 31.076C14.3136 31.316 14.0886 31.496 13.8066 31.616C14.1426 31.742 14.4096 31.949 14.6076 32.237C14.8056 32.525 14.9046 32.861 14.9046 33.245C14.9046 33.617 14.8026 33.944 14.5986 34.226C14.3946 34.508 14.1156 34.727 13.7616 34.883C13.4136 35.033 13.0266 35.108 12.6006 35.108ZM12.6006 31.274C12.9126 31.274 13.1586 31.193 13.3386 31.031C13.5186 30.869 13.6086 30.662 13.6086 30.41C13.6086 30.134 13.5186 29.918 13.3386 29.762C13.1646 29.606 12.9186 29.528 12.6006 29.528C12.2766 29.528 12.0276 29.606 11.8536 29.762C11.6796 29.918 11.5926 30.134 11.5926 30.41C11.5926 30.668 11.6796 30.878 11.8536 31.04C12.0336 31.196 12.2826 31.274 12.6006 31.274ZM12.6006 34.145C12.9846 34.145 13.2756 34.052 13.4736 33.866C13.6716 33.674 13.7706 33.434 13.7706 33.146C13.7706 32.828 13.6656 32.579 13.4556 32.399C13.2516 32.219 12.9666 32.129 12.6006 32.129C12.2346 32.129 11.9436 32.219 11.7276 32.399C11.5176 32.579 11.4126 32.828 11.4126 33.146C11.4126 33.434 11.5116 33.674 11.7096 33.866C11.9136 34.052 12.2106 34.145 12.6006 34.145ZM16.0108 35V28.52H17.1628V31.22C17.3128 30.974 17.5138 30.782 17.7658 30.644C18.0238 30.5 18.3178 30.428 18.6478 30.428C19.1998 30.428 19.6258 30.602 19.9258 30.95C20.2318 31.298 20.3848 31.808 20.3848 32.48V35H19.2418V32.588C19.2418 32.204 19.1638 31.91 19.0078 31.706C18.8578 31.502 18.6178 31.4 18.2878 31.4C17.9638 31.4 17.6938 31.514 17.4778 31.742C17.2678 31.97 17.1628 32.288 17.1628 32.696V35H16.0108Z" fill="white"/>
</svg>
