<svg width="18" height="18" viewBox="0 0 18 18" fill="none" xmlns="http://www.w3.org/2000/svg">
<g clip-path="url(#clip0_2835_3198)">
<path d="M9 18C13.9706 18 18 13.9706 18 9C18 4.02944 13.9706 0 9 0C4.02944 0 0 4.02944 0 9C0 13.9706 4.02944 18 9 18Z" fill="#F0F0F0"/>
<path d="M1.86097 3.52051C1.15402 4.4403 0.620941 5.50044 0.310547 6.65212H4.99259L1.86097 3.52051Z" fill="#0052B4"/>
<path d="M17.6898 6.65209C17.3794 5.50044 16.8463 4.4403 16.1394 3.52051L13.0078 6.65209H17.6898Z" fill="#0052B4"/>
<path d="M0.310547 11.3477C0.620977 12.4993 1.15405 13.5594 1.86097 14.4792L4.99248 11.3477H0.310547Z" fill="#0052B4"/>
<path d="M14.4792 1.86052C13.5594 1.15356 12.4993 0.620488 11.3477 0.310059V4.99206L14.4792 1.86052Z" fill="#0052B4"/>
<path d="M3.52148 16.1393C4.44128 16.8463 5.50141 17.3794 6.65306 17.6898V13.0078L3.52148 16.1393Z" fill="#0052B4"/>
<path d="M6.65303 0.310059C5.50138 0.620488 4.44124 1.15356 3.52148 1.86048L6.65303 4.99203V0.310059Z" fill="#0052B4"/>
<path d="M11.3477 17.6898C12.4993 17.3794 13.5594 16.8463 14.4792 16.1394L11.3477 13.0078V17.6898Z" fill="#0052B4"/>
<path d="M13.0078 11.3477L16.1394 14.4792C16.8463 13.5595 17.3794 12.4993 17.6898 11.3477H13.0078Z" fill="#0052B4"/>
<path d="M17.9238 7.8261H10.174H10.1739V0.0761836C9.78964 0.0261563 9.39786 0 9 0C8.60207 0 8.21035 0.0261563 7.8261 0.0761836V7.82603V7.82606H0.0761836C0.0261563 8.21036 0 8.60214 0 9C0 9.39793 0.0261563 9.78964 0.0761836 10.1739H7.82603H7.82606V17.9238C8.21036 17.9738 8.60207 18 9 18C9.39786 18 9.78964 17.9739 10.1739 17.9238V10.174V10.1739H17.9238C17.9738 9.78964 18 9.39793 18 9C18 8.60214 17.9738 8.21035 17.9238 7.8261Z" fill="#D80027"/>
<path d="M11.3477 11.3477L15.3638 15.3638C15.5485 15.1792 15.7247 14.9861 15.8928 14.786L12.4544 11.3477H11.3477V11.3477Z" fill="#D80027"/>
<path d="M6.65286 11.3477H6.65279L2.63672 15.3637C2.82136 15.5484 3.0144 15.7246 3.21451 15.8928L6.65286 12.4543V11.3477Z" fill="#D80027"/>
<path d="M6.65256 6.65244V6.65237L2.63645 2.63623C2.45174 2.82087 2.27554 3.01391 2.10742 3.21402L5.54581 6.65241H6.65256V6.65244Z" fill="#D80027"/>
<path d="M11.3477 6.65211L15.3638 2.63593C15.1792 2.45122 14.9861 2.27502 14.786 2.10693L11.3477 5.54532V6.65211Z" fill="#D80027"/>
</g>
<defs>
<clipPath id="clip0_2835_3198">
<rect width="18" height="18" fill="white"/>
</clipPath>
</defs>
</svg>
