<svg width="23" height="23" viewBox="0 0 23 23" fill="none" xmlns="http://www.w3.org/2000/svg">
<g clip-path="url(#clip0_29324_4208)">
<path d="M11.5 23C17.8513 23 23 17.8513 23 11.5C23 5.14873 17.8513 0 11.5 0C5.14873 0 0 5.14873 0 11.5C0 17.8513 5.14873 23 11.5 23Z" fill="#F0F0F0"/>
<path d="M23 11.5C23 6.94071 20.3467 3.00124 16.5 1.14111V21.8589C20.3467 19.9988 23 16.0593 23 11.5Z" fill="#D80027"/>
<path d="M0 11.5C0 16.0593 2.65331 19.9988 6.50002 21.8589V1.14111C2.65331 3.00124 0 6.94071 0 11.5Z" fill="#D80027"/>
<path d="M13.5 13L15.5 12L14.5 11.5V10.5L12.5 11.5L13.5 9.49999H12.5L11.5 8L10.5 9.49999H9.49997L10.5 11.5L8.49996 10.5V11.5L7.5 12L9.49997 13L8.99999 14H11V15.5H12V14H14L13.5 13Z" fill="#D80027"/>
</g>
<defs>
<clipPath id="clip0_29324_4208">
<rect width="23" height="23" fill="white"/>
</clipPath>
</defs>
</svg>
