<svg width="51" height="50" viewBox="0 0 51 50" fill="none" xmlns="http://www.w3.org/2000/svg">
<path d="M40.0827 4.1665H10.916C9.25841 4.1665 7.6687 4.82498 6.4966 5.99709C5.3245 7.16919 4.66602 8.7589 4.66602 10.4165V39.5832C4.66602 41.2408 5.3245 42.8305 6.4966 44.0026C7.6687 45.1747 9.25841 45.8332 10.916 45.8332H40.0827C40.4253 45.8284 40.7669 45.7935 41.1035 45.729L41.7285 45.5832H41.8743H41.9785L42.7493 45.2915L43.0202 45.1457C43.2285 45.0207 43.4577 44.9165 43.666 44.7707C43.9442 44.566 44.2087 44.3433 44.4577 44.104L44.6035 43.9165C44.808 43.7092 44.9961 43.4863 45.166 43.2498L45.3535 42.979C45.499 42.7471 45.6245 42.5031 45.7285 42.2498C45.7857 42.1499 45.8345 42.0453 45.8743 41.9373C45.9785 41.6873 46.041 41.4165 46.1243 41.1457V40.8332C46.2425 40.4261 46.3124 40.0065 46.3327 39.5832V10.4165C46.3327 8.7589 45.6742 7.16919 44.5021 5.99709C43.33 4.82498 41.7403 4.1665 40.0827 4.1665ZM10.916 41.6665C10.3635 41.6665 9.83358 41.447 9.44288 41.0563C9.05218 40.6656 8.83268 40.1357 8.83268 39.5832V30.604L15.6868 23.729C15.8805 23.5337 16.1109 23.3787 16.3648 23.273C16.6187 23.1672 16.891 23.1128 17.166 23.1128C17.441 23.1128 17.7133 23.1672 17.9672 23.273C18.2211 23.3787 18.4515 23.5337 18.6452 23.729L36.5618 41.6665H10.916ZM42.166 39.5832C42.1641 39.84 42.1146 40.0943 42.0202 40.3332C41.9726 40.4347 41.9168 40.5323 41.8535 40.6248C41.7978 40.713 41.7351 40.7966 41.666 40.8748L30.5202 29.729L32.3535 27.8957C32.5472 27.7004 32.7776 27.5454 33.0315 27.4396C33.2853 27.3339 33.5577 27.2794 33.8327 27.2794C34.1077 27.2794 34.38 27.3339 34.6339 27.4396C34.8878 27.5454 35.1182 27.7004 35.3118 27.8957L42.166 34.7707V39.5832ZM42.166 28.8748L38.2493 24.9998C37.0571 23.8686 35.4762 23.2379 33.8327 23.2379C32.1891 23.2379 30.6083 23.8686 29.416 24.9998L27.5827 26.8332L21.5827 20.8332C20.3904 19.7019 18.8096 19.0712 17.166 19.0712C15.5225 19.0712 13.9416 19.7019 12.7493 20.8332L8.83268 24.7082V10.4165C8.83268 9.86397 9.05218 9.33406 9.44288 8.94336C9.83358 8.55266 10.3635 8.33317 10.916 8.33317H40.0827C40.6352 8.33317 41.1651 8.55266 41.5558 8.94336C41.9465 9.33406 42.166 9.86397 42.166 10.4165V28.8748ZM28.6243 12.4998C28.0063 12.4998 27.4021 12.6831 26.8882 13.0265C26.3743 13.3699 25.9737 13.8579 25.7372 14.429C25.5007 15 25.4388 15.6283 25.5594 16.2345C25.68 16.8407 25.9776 17.3975 26.4146 17.8345C26.8517 18.2716 27.4085 18.5692 28.0147 18.6898C28.6209 18.8104 29.2492 18.7485 29.8202 18.512C30.3913 18.2754 30.8793 17.8749 31.2227 17.361C31.5661 16.8471 31.7493 16.2429 31.7493 15.6248C31.7493 14.796 31.4201 14.0012 30.8341 13.4151C30.248 12.8291 29.4531 12.4998 28.6243 12.4998Z" fill="#3A3A3A"/>
</svg>
