<svg width="47" height="46" viewBox="0 0 47 46" fill="none" xmlns="http://www.w3.org/2000/svg">
<path d="M44.334 8.41683H2.66732C2.11478 8.41683 1.58488 8.63632 1.19418 9.02703C0.803478 9.41773 0.583984 9.94763 0.583984 10.5002V18.8335C0.587608 20.123 0.989981 21.3798 1.73594 22.4316C2.4819 23.4834 3.53492 24.2787 4.75065 24.7085V43.8335C4.75065 44.386 4.97015 44.9159 5.36085 45.3066C5.75155 45.6973 6.28145 45.9168 6.83399 45.9168H40.1673C40.7199 45.9168 41.2498 45.6973 41.6405 45.3066C42.0312 44.9159 42.2507 44.386 42.2507 43.8335V24.7085C43.4664 24.2787 44.5194 23.4834 45.2654 22.4316C46.0113 21.3798 46.4137 20.123 46.4173 18.8335V10.5002C46.4173 9.94763 46.1978 9.41773 45.8071 9.02703C45.4164 8.63632 44.8865 8.41683 44.334 8.41683ZM29.7507 12.5835H33.9173V18.8335C33.9173 19.386 33.6978 19.9159 33.3071 20.3066C32.9164 20.6973 32.3865 20.9168 31.834 20.9168C31.2815 20.9168 30.7516 20.6973 30.3609 20.3066C29.9701 19.9159 29.7507 19.386 29.7507 18.8335V12.5835ZM21.4173 12.5835H25.584V18.8335C25.584 19.386 25.3645 19.9159 24.9738 20.3066C24.5831 20.6973 24.0532 20.9168 23.5007 20.9168C22.9481 20.9168 22.4182 20.6973 22.0275 20.3066C21.6368 19.9159 21.4173 19.386 21.4173 18.8335V12.5835ZM13.084 12.5835H17.2507V18.8335C17.2507 19.386 17.0312 19.9159 16.6405 20.3066C16.2498 20.6973 15.7199 20.9168 15.1673 20.9168C14.6148 20.9168 14.0849 20.6973 13.6942 20.3066C13.3035 19.9159 13.084 19.386 13.084 18.8335V12.5835ZM6.83399 20.9168C6.28145 20.9168 5.75155 20.6973 5.36085 20.3066C4.97015 19.9159 4.75065 19.386 4.75065 18.8335V12.5835H8.91732V18.8335C8.91732 19.386 8.69783 19.9159 8.30712 20.3066C7.91642 20.6973 7.38652 20.9168 6.83399 20.9168ZM27.6673 41.7502H19.334V37.5835C19.334 36.4784 19.773 35.4186 20.5544 34.6372C21.3358 33.8558 22.3956 33.4168 23.5007 33.4168C24.6057 33.4168 25.6655 33.8558 26.4469 34.6372C27.2283 35.4186 27.6673 36.4784 27.6673 37.5835V41.7502ZM38.084 41.7502H31.834V37.5835C31.834 35.3734 30.956 33.2537 29.3932 31.6909C27.8304 30.1281 25.7108 29.2502 23.5007 29.2502C21.2905 29.2502 19.1709 30.1281 17.6081 31.6909C16.0453 33.2537 15.1673 35.3734 15.1673 37.5835V41.7502H8.91732V24.7085C9.68309 24.4243 10.3895 24.0004 11.0007 23.4585C12.1465 24.4834 13.63 25.05 15.1673 25.05C16.7047 25.05 18.1881 24.4834 19.334 23.4585C20.4799 24.4834 21.9633 25.05 23.5007 25.05C25.038 25.05 26.5214 24.4834 27.6673 23.4585C28.8132 24.4834 30.2966 25.05 31.834 25.05C33.3713 25.05 34.8548 24.4834 36.0007 23.4585C36.6118 24.0004 37.3182 24.4243 38.084 24.7085V41.7502ZM42.2507 18.8335C42.2507 19.386 42.0312 19.9159 41.6405 20.3066C41.2498 20.6973 40.7199 20.9168 40.1673 20.9168C39.6148 20.9168 39.0849 20.6973 38.6942 20.3066C38.3035 19.9159 38.084 19.386 38.084 18.8335V12.5835H42.2507V18.8335ZM7.45899 4.25016H40.1673C40.7199 4.25016 41.2498 4.03067 41.6405 3.63997C42.0312 3.24927 42.2507 2.71936 42.2507 2.16683C42.2507 1.6143 42.0312 1.08439 41.6405 0.69369C41.2498 0.302989 40.7199 0.0834961 40.1673 0.0834961H7.45899C6.90645 0.0834961 6.37655 0.302989 5.98585 0.69369C5.59515 1.08439 5.37565 1.6143 5.37565 2.16683C5.37565 2.71936 5.59515 3.24927 5.98585 3.63997C6.37655 4.03067 6.90645 4.25016 7.45899 4.25016Z" fill="#3A3A3A"/>
</svg>
