<svg width="51" height="50" viewBox="0 0 51 50" fill="none" xmlns="http://www.w3.org/2000/svg">
<g clip-path="url(#clip0_29452_3096)">
<path fill-rule="evenodd" clip-rule="evenodd" d="M2.58333 0C1.43274 0 0.5 0.93274 0.5 2.08333C0.5 3.23393 1.43274 4.16667 2.58333 4.16667H9.20899L10.9416 12.8231C10.9508 12.8824 10.9625 12.9408 10.9766 12.9983L14.4569 30.3868C14.743 31.8248 15.5255 33.1165 16.6677 34.036C17.8046 34.9512 19.2258 35.4395 20.6847 35.4167H40.8987C42.3576 35.4395 43.7787 34.9512 44.9157 34.036C46.0583 33.1162 46.841 31.8238 47.1268 30.385L50.4631 12.8903C50.5794 12.2804 50.4176 11.6504 50.0219 11.172C49.6261 10.6936 49.0376 10.4167 48.4167 10.4167H14.7092L12.9595 1.67446C12.7646 0.700803 11.9096 0 10.9167 0H2.58333ZM18.5434 29.5733L15.5432 14.5833H45.8985L43.0386 29.58C42.9422 30.0569 42.682 30.4851 42.3029 30.7903C41.922 31.0969 41.4454 31.2598 40.9566 31.2504L40.9167 31.25H20.6667L20.6268 31.2504C20.1379 31.2598 19.6613 31.0969 19.2804 30.7903C18.8996 30.4837 18.6387 30.0529 18.5434 29.5733ZM15.0833 43.75C15.0833 41.4488 16.9488 39.5833 19.25 39.5833C21.5512 39.5833 23.4167 41.4488 23.4167 43.75C23.4167 46.0512 21.5512 47.9167 19.25 47.9167C16.9488 47.9167 15.0833 46.0512 15.0833 43.75ZM38 43.75C38 41.4488 39.8655 39.5833 42.1667 39.5833C44.4679 39.5833 46.3333 41.4488 46.3333 43.75C46.3333 46.0512 44.4679 47.9167 42.1667 47.9167C39.8655 47.9167 38 46.0512 38 43.75Z" fill="#3A3A3A"/>
</g>
<defs>
<clipPath id="clip0_29452_3096">
<rect width="50" height="50" fill="white" transform="translate(0.5)"/>
</clipPath>
</defs>
</svg>
