<svg width="51" height="50" viewBox="0 0 51 50" fill="none" xmlns="http://www.w3.org/2000/svg">
<g clip-path="url(#clip0_29452_3106)">
<path fill-rule="evenodd" clip-rule="evenodd" d="M2.58333 4.1665C1.43274 4.1665 0.5 5.09924 0.5 6.24984V33.3332C0.5 34.4838 1.43274 35.4165 2.58333 35.4165H5.36836C4.91843 36.3636 4.66667 37.4232 4.66667 38.5415C4.66667 42.5686 7.93126 45.8332 11.9583 45.8332C15.9854 45.8332 19.25 42.5686 19.25 38.5415C19.25 37.4232 18.9982 36.3636 18.5483 35.4165H32.4517C32.0018 36.3636 31.75 37.4232 31.75 38.5415C31.75 42.5686 35.0146 45.8332 39.0417 45.8332C43.0687 45.8332 46.3333 42.5686 46.3333 38.5415C46.3333 37.4232 46.0816 36.3636 45.6316 35.4165H48.4167C49.5673 35.4165 50.5 34.4838 50.5 33.3332V22.9165C50.5 22.364 50.2805 21.8341 49.8898 21.4434L43.6398 15.1934C43.2491 14.8027 42.7192 14.5832 42.1667 14.5832H35.9167V6.24984C35.9167 5.09924 34.9839 4.1665 33.8333 4.1665H2.58333ZM39.0452 35.4165C39.044 35.4165 39.0428 35.4165 39.0417 35.4165C39.0405 35.4165 39.0393 35.4165 39.0382 35.4165C37.3139 35.4184 35.9167 36.8168 35.9167 38.5415C35.9167 40.2674 37.3158 41.6665 39.0417 41.6665C40.7676 41.6665 42.1667 40.2674 42.1667 38.5415C42.1667 36.8168 40.7694 35.4184 39.0452 35.4165ZM39.0417 31.2498H46.3333V23.7794L41.3037 18.7498H35.9167V31.2498H39.0417ZM11.9583 31.2498L11.953 31.2498H4.66667V8.33317H31.75V16.6637L31.75 16.6665L31.75 31.2498H11.9637L11.9583 31.2498ZM8.83333 38.5415C8.83333 36.8168 10.2306 35.4184 11.9548 35.4165L11.9583 35.4165L11.9618 35.4165C13.6861 35.4184 15.0833 36.8168 15.0833 38.5415C15.0833 40.2674 13.6842 41.6665 11.9583 41.6665C10.2324 41.6665 8.83333 40.2674 8.83333 38.5415Z" fill="#3A3A3A"/>
</g>
<defs>
<clipPath id="clip0_29452_3106">
<rect width="50" height="50" fill="white" transform="translate(0.5)"/>
</clipPath>
</defs>
</svg>
