<svg width="14" height="8" viewBox="0 0 14 8" fill="none" xmlns="http://www.w3.org/2000/svg">
<path d="M13.7108 0.329895C13.6178 0.225362 13.5072 0.142392 13.3854 0.0857716C13.2635 0.0291509 13.1328 0 13.0008 0C12.8688 0 12.7381 0.0291509 12.6162 0.0857716C12.4944 0.142392 12.3838 0.225362 12.2908 0.329895L7.71079 5.43783C7.61783 5.54236 7.50723 5.62533 7.38537 5.68195C7.26351 5.73857 7.13281 5.76772 7.00079 5.76772C6.86878 5.76772 6.73808 5.73857 6.61622 5.68195C6.49436 5.62533 6.38376 5.54236 6.29079 5.43783L1.71079 0.329895C1.61783 0.225362 1.50723 0.142392 1.38537 0.0857716C1.26351 0.0291509 1.1328 0 1.00079 0C0.868781 0 0.738075 0.0291509 0.616216 0.0857716C0.494357 0.142392 0.383756 0.225362 0.290792 0.329895C0.104542 0.538854 0 0.821521 0 1.11616C0 1.4108 0.104542 1.69346 0.290792 1.90242L4.88079 7.02151C5.44329 7.64807 6.20579 8 7.00079 8C7.7958 8 8.55829 7.64807 9.12079 7.02151L13.7108 1.90242C13.897 1.69346 14.0016 1.4108 14.0016 1.11616C14.0016 0.821521 13.897 0.538854 13.7108 0.329895Z" fill="#7B53E7"/>
</svg>
