<svg width="23" height="23" viewBox="0 0 23 23" fill="none" xmlns="http://www.w3.org/2000/svg">
<g clip-path="url(#clip0_1947_3393)">
<path d="M23 11.5001C23 17.8514 17.8512 23.0001 11.5 23.0001C5.14877 23.0001 0 17.8514 0 11.5001C0 11.5028 11.5 0.0014248 11.5 0.00012207C17.8512 0.00012207 23 5.14889 23 11.5001Z" fill="#0052B4"/>
<path d="M11.4688 11.5001H11.4995C11.4995 11.4897 11.4995 11.4797 11.4995 11.4694C11.4893 11.4796 11.479 11.4899 11.4688 11.5001Z" fill="#F0F0F0"/>
<path d="M11.5 6.00011C11.5 3.97661 11.5 2.65065 11.5 0.00012207H11.4981C5.14769 0.00115527 0 5.14943 0 11.5001H5.99999V8.12141L9.37865 11.5001H11.4693C11.4796 11.4898 11.4898 11.4796 11.5 11.4693C11.5 10.6945 11.5 10.0032 11.5 9.37882L8.12134 6.00011H11.5Z" fill="#F0F0F0"/>
<path d="M5.81807 1.50012C4.01944 2.5243 2.52417 4.01957 1.5 5.81819V11.5001H4.50002V4.50018V4.50014H11.5C11.5 3.55395 11.5 2.65255 11.5 1.50012H5.81807Z" fill="#D80027"/>
<path d="M11.5 10.086L7.41419 6.00026H6C6 6.00022 6 6.00026 6 6.00026L11.4999 11.5002H11.5C11.5 11.5002 11.5 10.5252 11.5 10.086Z" fill="#D80027"/>
<path d="M6.93537 13.5001L7.56652 14.8198L8.99176 14.4904L8.35351 15.8067L9.49964 16.7156L8.07261 17.0373L8.07661 18.5001L6.93537 17.5849L5.79417 18.5001L5.79817 17.0373L4.37109 16.7156L5.51728 15.8067L4.87894 14.4904L6.30426 14.8198L6.93537 13.5001Z" fill="#F0F0F0"/>
<path d="M17.2177 16.0001L17.5332 16.66L18.2459 16.4953L17.9267 17.1534L18.4998 17.6079L17.7863 17.7687L17.7883 18.5001L17.2177 18.0425L16.6471 18.5001L16.649 17.7687L15.9355 17.6079L16.5086 17.1534L16.1895 16.4953L16.9021 16.66L17.2177 16.0001Z" fill="#F0F0F0"/>
<path d="M14.2822 9.00012L14.5977 9.66002L15.3103 9.49525L14.9912 10.1534L15.5643 10.6079L14.8508 10.7687L14.8527 11.5001L14.2822 11.0425L13.7116 11.5001L13.7135 10.7687L13 10.6079L13.5731 10.1534L13.2539 9.49525L13.9666 9.66002L14.2822 9.00012Z" fill="#F0F0F0"/>
<path d="M17.2177 5.00012L17.5332 5.66002L18.2459 5.4953L17.9268 6.15345L18.4998 6.60788L17.7863 6.76874L17.7883 7.50016L17.2177 7.04254L16.6471 7.50016L16.649 6.76874L15.9355 6.60788L16.5086 6.15345L16.1895 5.4953L16.9021 5.66002L17.2177 5.00012Z" fill="#F0F0F0"/>
<path d="M19.7822 8.00012L20.0977 8.66002L20.8103 8.49525L20.4912 9.1534L21.0643 9.60788L20.3507 9.76874L20.3527 10.5001L19.7822 10.0425L19.2116 10.5001L19.2135 9.76874L18.5 9.60788L19.0731 9.1534L18.7539 8.49525L19.4665 8.66002L19.7822 8.00012Z" fill="#F0F0F0"/>
<path d="M17.948 11.5001L18.1962 12.2641H18.9995L18.3496 12.7362L18.5979 13.5001L17.948 13.028L17.2981 13.5001L17.5463 12.7362L16.8965 12.2641H17.6997L17.948 11.5001Z" fill="#F0F0F0"/>
</g>
<defs>
<clipPath id="clip0_1947_3393">
<rect width="23" height="23" fill="white"/>
</clipPath>
</defs>
</svg>
