<svg width="23" height="23" viewBox="0 0 23 23" fill="none" xmlns="http://www.w3.org/2000/svg">
<g clip-path="url(#clip0_1947_3365)">
<path d="M15.5 0.715413C14.2541 0.253167 12.9067 0.00012207 11.5 0.00012207C10.0933 0.00012207 8.74582 0.253167 7.50001 0.715413L6.5 11.5001L7.50001 22.2848C8.74582 22.7471 10.0933 23.0001 11.5 23.0001C12.9067 23.0001 14.2541 22.7471 15.5 22.2848L16.5 11.5001L15.5 0.715413Z" fill="#FFDA44"/>
<path d="M23 11.5001C23 6.55557 19.8792 2.34028 15.5 0.715454V22.2849C19.8792 20.66 23 16.4448 23 11.5001Z" fill="#D80027"/>
<path d="M0 11.5001C0 16.4448 3.12081 20.66 7.50002 22.2849V0.715454C3.12081 2.34028 0 6.55557 0 11.5001Z" fill="black"/>
</g>
<defs>
<clipPath id="clip0_1947_3365">
<rect width="23" height="23" fill="white"/>
</clipPath>
</defs>
</svg>
