<svg width="52" height="46" viewBox="0 0 52 46" fill="none" xmlns="http://www.w3.org/2000/svg">
<path d="M6.71504 44.3332C7.29029 44.3332 7.75511 43.894 7.75511 43.3506V15.5321C7.75511 14.991 8.21993 14.5495 8.79518 14.5495H20.1975C21.217 14.4961 23.2432 14.712 24.7224 15.0323C25.7471 15.1681 27.5268 15.9008 28.6927 16.6724C29.5376 17.0921 30.7985 18.4677 31.5099 19.7415C32.2212 21.0176 32.5756 22.6238 32.5756 24.5574C32.6963 25.87 32.2264 27.9783 31.5304 29.2691C31.1503 30.1983 29.9074 31.6103 28.7543 32.4231C28.0558 33.0345 26.2787 33.8254 24.7841 34.1893C23.2894 34.5533 21.7589 34.7377 20.1949 34.7377H18.7902C18.2175 34.7377 17.7501 35.1768 17.7501 35.7203V43.3457C17.7501 43.8868 18.2149 44.3283 18.7902 44.3283H36.6229C37.1956 44.3283 37.9943 44.0202 38.4026 43.6393L49.2604 33.5294C49.6688 33.1485 50 32.4013 50 31.8578V2.6491C50 2.10564 49.5352 1.6665 48.96 1.6665H19.5375C18.9622 1.6665 18.0737 1.84846 17.5523 2.0741L2.9451 8.36516C2.42378 8.59079 2.00004 9.21189 2.00004 9.75536V43.3506C2.00004 43.8916 2.46487 44.3332 3.04012 44.3332H6.71504Z" fill="white" stroke="white" stroke-width="2.66667" stroke-linecap="round" stroke-linejoin="round"/>
</svg>
