<svg width="125" height="106" viewBox="0 0 125 106" fill="none" xmlns="http://www.w3.org/2000/svg">
<g filter="url(#filter0_d_1932_1820)">
<path fill-rule="evenodd" clip-rule="evenodd" d="M59.036 55.5842C58.1915 56.9987 56.7965 58.0331 55.158 58.4596C53.5196 58.8862 51.7718 58.6701 50.2992 57.8588C48.8266 57.0476 47.7498 55.7076 47.3057 54.1338C46.8616 52.5599 47.0866 50.881 47.9312 49.4665C48.7 48.1788 49.925 47.2062 51.3746 46.7203L58.4785 34.8223C58.183 33.3751 58.4384 31.8683 59.2073 30.5805C60.0518 29.166 61.4468 28.1317 63.0853 27.7051C64.7237 27.2785 66.4715 27.4947 67.9441 28.3059C69.2863 29.0453 70.2996 30.2239 70.8048 31.6185L77.4633 35.3601L85.9553 21.137C85.9439 21.0884 85.9336 21.0397 85.9242 20.9907C85.6069 19.8306 85.6498 18.6064 86.0479 17.4689C86.4514 16.3163 87.2017 15.3045 88.2038 14.5614C89.2059 13.8184 90.4149 13.3775 91.6779 13.2944C92.9409 13.2114 94.2012 13.49 95.2993 14.095C96.3975 14.7 97.2842 15.6042 97.8474 16.6932C98.4106 17.7823 98.6249 19.0073 98.4633 20.2134C98.3017 21.4195 97.7714 22.5525 96.9394 23.469C96.2079 24.2749 95.2722 24.8817 94.2264 25.2327L85.5537 39.8974C85.9455 41.4298 85.7092 43.0505 84.89 44.4225C84.0455 45.837 82.6505 46.8713 81.012 47.2979C79.3736 47.7245 77.6258 47.5084 76.1532 46.6971C74.7256 45.9107 73.67 44.6273 73.2022 43.1157L66.9262 39.6582L66.1913 39.8495L59.6432 50.8168C59.6546 50.8654 59.665 50.9142 59.6743 50.9632C60.1011 52.5236 59.8723 54.1835 59.036 55.5842ZM47.3214 72.571L104.737 57.6228C105.92 57.3149 107.181 57.4709 108.244 58.0565C109.307 58.642 110.084 59.6092 110.405 60.7452C110.725 61.8812 110.563 63.093 109.953 64.114C109.344 65.135 108.337 65.8815 107.154 66.1894L45.2795 82.2985C44.0969 82.6064 42.8353 82.4504 41.7724 81.8649C40.7095 81.2793 39.9323 80.3121 39.6118 79.1761L22.8414 19.7413C22.5209 18.6053 22.6833 17.3935 23.2928 16.3725C23.9024 15.3515 24.9093 14.605 26.0919 14.2971C27.2746 13.9892 28.5361 14.1452 29.599 14.7307C30.6619 15.3163 31.4391 16.2834 31.7597 17.4194L47.3214 72.571Z" fill="#F2EEFD"/>
</g>
<defs>
<filter id="filter0_d_1932_1820" x="0.679688" y="0.280029" width="123.887" height="105.173" filterUnits="userSpaceOnUse" color-interpolation-filters="sRGB">
<feFlood flood-opacity="0" result="BackgroundImageFix"/>
<feColorMatrix in="SourceAlpha" type="matrix" values="0 0 0 0 0 0 0 0 0 0 0 0 0 0 0 0 0 0 127 0" result="hardAlpha"/>
<feOffset dx="-4" dy="5"/>
<feGaussianBlur stdDeviation="9"/>
<feComposite in2="hardAlpha" operator="out"/>
<feColorMatrix type="matrix" values="0 0 0 0 0.94902 0 0 0 0 0.933333 0 0 0 0 0.992157 0 0 0 0.5 0"/>
<feBlend mode="normal" in2="BackgroundImageFix" result="effect1_dropShadow_1932_1820"/>
<feBlend mode="normal" in="SourceGraphic" in2="effect1_dropShadow_1932_1820" result="shape"/>
</filter>
</defs>
</svg>
