<svg width="23" height="23" viewBox="0 0 23 23" fill="none" xmlns="http://www.w3.org/2000/svg">
<g clip-path="url(#clip0_1947_3375)">
<path d="M23 11.5001C23 10.0934 22.747 8.74592 22.2847 7.50015L11.5 7.00012L0.715291 7.5001C0.253045 8.74592 0 10.0934 0 11.5001C0 12.9068 0.253045 14.2543 0.715291 15.5001L11.5 16.0001L22.2847 15.5002C22.747 14.2543 23 12.9068 23 11.5001Z" fill="#F0F0F0"/>
<path d="M11.4996 23.0001C16.4441 23.0001 20.6594 19.8793 22.2843 15.5001H0.714844C2.33971 19.8793 6.55496 23.0001 11.4996 23.0001Z" fill="#0052B4"/>
<path d="M0.714844 7.50014H22.2843C20.6594 3.12093 16.4442 0.00012207 11.4996 0.00012207C6.55496 0.00012207 2.33971 3.12093 0.714844 7.50014Z" fill="#D80027"/>
<path d="M14.5 8.00016H12.5L12.8334 5.50013L14.1666 4.50012L15.5 5.50013V7.50014L14.5 8.00016Z" fill="#338AF3"/>
<path d="M8.49996 8.00016H10.5L10.1666 5.50013L8.83328 4.50012L7.5 5.50013V7.50014L8.49996 8.00016Z" fill="#338AF3"/>
<path d="M12.8328 8.00016H10.166V5.50013L11.4994 4.50012L12.8328 5.50013V8.00016Z" fill="#0052B4"/>
<path d="M7.5 7.50024V13.0002C7.5 14.3098 8.13259 15.4745 9.10829 16.2046L9.80831 16.0294L10.6917 16.9181C10.9529 16.9719 11.2232 17.0002 11.5 17.0002C11.7754 17.0002 12.0443 16.9722 12.3042 16.919L13.3125 16.0794L13.8917 16.203C14.867 15.4729 15.5 14.3095 15.5 13.0002V7.50024H7.5Z" fill="#F0F0F0"/>
<path d="M7.5 7.50012H9.09998V9.1001H7.5V7.50012Z" fill="#D80027"/>
<path d="M10.6992 7.50012H12.2992V9.1001H10.6992V7.50012Z" fill="#D80027"/>
<path d="M13.9004 7.50012H15.5004V9.1001H13.9004V7.50012Z" fill="#D80027"/>
<path d="M9.09961 9.1001H10.6996V10.7001H9.09961V9.1001Z" fill="#D80027"/>
<path d="M12.3008 9.1001H13.9008V10.7001H12.3008V9.1001Z" fill="#D80027"/>
<path d="M7.5 10.6996H9.09998V12.2996H7.5V10.6996Z" fill="#D80027"/>
<path d="M9.09961 12.2997H10.6996V13.8997H9.09961V12.2997Z" fill="#D80027"/>
<path d="M10.6992 10.6996H12.2992V12.2996H10.6992V10.6996Z" fill="#D80027"/>
<path d="M13.9004 10.6996H15.5004V12.2996H13.9004V10.6996Z" fill="#D80027"/>
<path d="M12.3008 12.2997H13.9008V13.8997H12.3008V12.2997Z" fill="#D80027"/>
<path d="M10.6992 13.8997H12.2992V15.4996H10.6992V13.8997Z" fill="#D80027"/>
<path d="M9.10027 13.8998H7.60352C7.7408 14.4945 8.01069 15.0388 8.38075 15.4998H9.10027V13.8998Z" fill="#D80027"/>
<path d="M13.9004 15.4998H14.6199C14.99 15.0388 15.2598 14.4945 15.3971 13.8998H13.9004V15.4998Z" fill="#D80027"/>
<path d="M9.09961 15.4998V16.1979C9.56496 16.5481 10.1088 16.7991 10.6996 16.9196V15.4998H9.09961Z" fill="#D80027"/>
<path d="M12.3008 15.4998V16.9196C12.8916 16.7992 13.4354 16.5481 13.9008 16.1979V15.4998H12.3008Z" fill="#D80027"/>
</g>
<defs>
<clipPath id="clip0_1947_3375">
<rect width="23" height="23" fill="white"/>
</clipPath>
</defs>
</svg>
