<svg width="23" height="23" viewBox="0 0 23 23" fill="none" xmlns="http://www.w3.org/2000/svg">
<g clip-path="url(#clip0_1947_3378)">
<path d="M11.5 23.0001C17.8513 23.0001 23 17.8514 23 11.5001C23 5.14885 17.8513 0.00012207 11.5 0.00012207C5.14873 0.00012207 0 5.14885 0 11.5001C0 17.8514 5.14873 23.0001 11.5 23.0001Z" fill="#F0F0F0"/>
<path d="M10.5009 11.5001C10.5009 11.5001 3.37588 19.6335 3.36914 19.6318C5.45019 21.7129 8.32524 23.0001 11.5009 23.0001C17.8521 23.0001 23.0009 17.8514 23.0009 11.5001H10.5009Z" fill="#D80027"/>
<path d="M3.36826 3.36841C-1.12275 7.85943 -1.12275 15.1409 3.36826 19.6319C5.22412 17.7761 7.009 15.9912 11.5 11.5002L3.36826 3.36841Z" fill="#0052B4"/>
</g>
<defs>
<clipPath id="clip0_1947_3378">
<rect width="23" height="23" fill="white"/>
</clipPath>
</defs>
</svg>
