<svg width="23" height="23" viewBox="0 0 23 23" fill="none" xmlns="http://www.w3.org/2000/svg">
<g clip-path="url(#clip0_1947_3387)">
<path d="M11.5 23.0001C17.8513 23.0001 23 17.8514 23 11.5001C23 5.14885 17.8513 0.00012207 11.5 0.00012207C5.14873 0.00012207 0 5.14885 0 11.5001C0 17.8514 5.14873 23.0001 11.5 23.0001Z" fill="#F0F0F0"/>
<path d="M22.9027 10.0001H9.00005H9.00001V0.273438C7.93725 0.509098 6.92969 0.891068 5.99999 1.39837V10V10.0001H0.0973457C0.033332 10.4911 0 10.9917 0 11.5001C0 12.0085 0.033332 12.5091 0.0973457 13.0001H5.99995H5.99999V21.6018C6.92969 22.109 7.93725 22.4911 9.00001 22.7267V13.0002V13.0001H22.9027C22.9666 12.5091 23 12.0085 23 11.5001C23 10.9917 22.9666 10.4911 22.9027 10.0001Z" fill="#0052B4"/>
</g>
<defs>
<clipPath id="clip0_1947_3387">
<rect width="23" height="23" fill="white"/>
</clipPath>
</defs>
</svg>
