<svg width="23" height="23" viewBox="0 0 23 23" fill="none" xmlns="http://www.w3.org/2000/svg">
<g clip-path="url(#clip0_1947_3390)">
<path d="M11.5 23.0001C17.8513 23.0001 23 17.8514 23 11.5001C23 5.14885 17.8513 0.00012207 11.5 0.00012207C5.14873 0.00012207 0 5.14885 0 11.5001C0 17.8514 5.14873 23.0001 11.5 23.0001Z" fill="#F0F0F0"/>
<path d="M23 11.5002C23 6.55557 19.8792 2.34032 15.5 0.715454V22.2849C19.8792 20.66 23 16.4448 23 11.5002Z" fill="#D80027"/>
<path d="M0 11.5002C0 16.4448 3.12086 20.66 7.50002 22.2849V0.715454C3.12086 2.34032 0 6.55557 0 11.5002Z" fill="#0052B4"/>
</g>
<defs>
<clipPath id="clip0_1947_3390">
<rect width="23" height="23" fill="white"/>
</clipPath>
</defs>
</svg>
