<svg width="23" height="23" viewBox="0 0 23 23" fill="none" xmlns="http://www.w3.org/2000/svg">
<g clip-path="url(#clip0_1947_3304)">
<path d="M0.714844 15.5001C2.33971 19.8792 6.55496 23.0001 11.4996 23.0001C16.4441 23.0001 20.6594 19.8792 22.2843 15.5001L11.4996 14.5001L0.714844 15.5001Z" fill="#FFDA44"/>
<path d="M11.4996 0.00012207C6.55496 0.00012207 2.33971 3.12093 0.714844 7.50014L11.4996 8.5001L22.2843 7.5001C20.6594 3.12093 16.4441 0.00012207 11.4996 0.00012207Z" fill="black"/>
<path d="M0.715291 7.50012C0.253045 8.74594 0 10.0934 0 11.5001C0 12.9068 0.253045 14.2543 0.715291 15.5001H22.2848C22.747 14.2543 23 12.9068 23 11.5001C23 10.0934 22.747 8.74594 22.2847 7.50012H0.715291Z" fill="#D80027"/>
</g>
<defs>
<clipPath id="clip0_1947_3304">
<rect width="23" height="23" fill="white"/>
</clipPath>
</defs>
</svg>
