<svg width="23" height="23" viewBox="0 0 23 23" fill="none" xmlns="http://www.w3.org/2000/svg">
<g clip-path="url(#clip0_1947_3307)">
<path d="M11.5 23.0001C17.8513 23.0001 23 17.8514 23 11.5001C23 5.14885 17.8513 0.00012207 11.5 0.00012207C5.14873 0.00012207 0 5.14885 0 11.5001C0 17.8514 5.14873 23.0001 11.5 23.0001Z" fill="#F0F0F0"/>
<path d="M11.5 8.50014H22.6038C22.3155 7.43037 21.8772 6.42228 21.3121 5.50012H11.5V8.50014Z" fill="#338AF3"/>
<path d="M4.34099 20.5001H18.6582C19.7077 19.6642 20.6077 18.6489 21.3117 17.5001H1.6875C2.39147 18.6489 3.29153 19.6642 4.34099 20.5001Z" fill="#338AF3"/>
<path d="M3.99958 2.78259C3.09549 3.56113 2.31389 4.47794 1.6875 5.50019H3.99958V2.78259Z" fill="#338AF3"/>
<path d="M11.5 11.5001C11.5 10.3288 11.5 9.34843 11.5 8.50012H7V11.5001H3.99998V8.50012H0.396166C0.138359 9.45669 0 10.4621 0 11.5001C0 12.5381 0.138359 13.5436 0.396166 14.5002H22.6039C22.8616 13.5436 23 12.5381 23 11.5001H11.5Z" fill="#338AF3"/>
<path d="M11.5 0.00012207C9.90308 0.00012207 8.38225 0.32594 7 0.914192V5.50013H11.5C11.5 4.45291 11.5 3.56225 11.5 2.50011H18.6586C16.6941 0.935575 14.2065 0.00012207 11.5 0.00012207Z" fill="#338AF3"/>
</g>
<defs>
<clipPath id="clip0_1947_3307">
<rect width="23" height="23" fill="white"/>
</clipPath>
</defs>
</svg>
