<svg width="23" height="23" viewBox="0 0 23 23" fill="none" xmlns="http://www.w3.org/2000/svg">
<g clip-path="url(#clip0_1947_3322)">
<path d="M22.2847 15.5001C22.747 14.2543 23 12.9068 23 11.5001C23 10.0934 22.747 8.7459 22.2847 7.50013L11.5 6.50012L0.715291 7.50013C0.253 8.7459 0 10.0934 0 11.5001C0 12.9068 0.253 14.2543 0.715291 15.5001L11.5 16.5001L22.2847 15.5001Z" fill="#6DA544"/>
<path d="M22.2843 7.50014C20.6594 3.12093 16.4441 0.00012207 11.4996 0.00012207C6.55496 0.00012207 2.33971 3.12093 0.714844 7.50014H22.2843Z" fill="#FFDA44"/>
<path d="M11.4996 23.0001C16.4441 23.0001 20.6594 19.8793 22.2843 15.5001H0.714844C2.33971 19.8793 6.55496 23.0001 11.4996 23.0001Z" fill="#D80027"/>
</g>
<defs>
<clipPath id="clip0_1947_3322">
<rect width="23" height="23" fill="white"/>
</clipPath>
</defs>
</svg>
