<svg width="203" height="58" viewBox="0 0 203 58" fill="none" xmlns="http://www.w3.org/2000/svg">
<path d="M13.5363 45C13.9677 45 14.3163 44.6706 14.3163 44.263V23.3992C14.3163 22.9934 14.665 22.6622 15.0964 22.6622H23.6481C24.4127 22.6222 25.9324 22.7841 27.0418 23.0243C27.8103 23.1262 29.1451 23.6758 30.0195 24.2544C30.6532 24.5692 31.5989 25.6009 32.1324 26.5562C32.6659 27.5134 32.9317 28.718 32.9317 30.1682C33.0222 31.1526 32.6698 32.7339 32.1478 33.7019C31.8627 34.3988 30.9305 35.4579 30.0657 36.0674C29.5418 36.526 28.209 37.1192 27.088 37.3921C25.9671 37.6651 24.8191 37.8034 23.6462 37.8034H22.5926C22.1631 37.8034 21.8126 38.1327 21.8126 38.5403V44.2594C21.8126 44.6652 22.1612 44.9964 22.5926 44.9964H35.9672C36.3967 44.9964 36.9957 44.7653 37.3019 44.4796L45.4453 36.8972C45.7516 36.6115 46 36.0511 46 35.6435V13.7369C46 13.3293 45.6514 13 45.22 13H23.1531C22.7217 13 22.0552 13.1365 21.6643 13.3057L10.7088 18.024C10.3178 18.1932 10 18.659 10 19.0666V44.263C10 44.6688 10.3486 45 10.7801 45H13.5363Z" fill="#1E1E1E" stroke="#1E1E1E" stroke-width="2" stroke-linecap="round" stroke-linejoin="round"/>
<path d="M67.84 37.48C67.424 37.48 67.04 37.32 66.688 37C66.336 36.712 66.16 36.36 66.16 35.944V20.44C66.16 19.576 66.432 18.92 66.976 18.472C67.52 18.024 68.128 17.8 68.8 17.8H73.888C74.976 17.8 75.984 18.024 76.912 18.472C77.872 18.888 78.64 19.512 79.216 20.344C79.792 21.176 80.08 22.2 80.08 23.416C80.08 25.304 79.472 26.808 78.256 27.928C77.072 29.048 75.632 29.608 73.936 29.608H70.72C69.92 29.608 69.52 30.088 69.52 31.048V35.944C69.52 36.36 69.344 36.712 68.992 37C68.672 37.32 68.288 37.48 67.84 37.48ZM70.48 26.728H73.408C74.208 26.728 74.976 26.488 75.712 26.008C76.48 25.528 76.864 24.696 76.864 23.512C76.864 22.584 76.512 21.896 75.808 21.448C75.136 20.968 74.4 20.728 73.6 20.728H70.624C69.824 20.728 69.424 21.112 69.424 21.88V25.432C69.424 26.296 69.776 26.728 70.48 26.728ZM86.2465 29.896V35.992C86.2465 36.472 86.0705 36.84 85.7185 37.096C85.3985 37.352 85.0305 37.48 84.6145 37.48C84.1985 37.48 83.8145 37.352 83.4625 37.096C83.1425 36.84 82.9825 36.472 82.9825 35.992V24.712C82.9825 24.168 83.1425 23.768 83.4625 23.512C83.8145 23.224 84.1985 23.08 84.6145 23.08C85.0305 23.08 85.3985 23.224 85.7185 23.512C86.0705 23.768 86.2465 24.168 86.2465 24.712V24.904C86.6945 24.296 87.2705 23.8 87.9745 23.416C88.7105 23.032 89.4785 22.84 90.2785 22.84C90.6625 22.84 91.0465 22.888 91.4305 22.984C91.8145 23.08 92.1025 23.272 92.2945 23.56C92.4865 23.848 92.5825 24.168 92.5825 24.52C92.5825 24.936 92.4385 25.32 92.1505 25.672C91.8945 25.992 91.5105 26.152 90.9985 26.152C90.7745 26.152 90.5345 26.12 90.2785 26.056C90.0545 25.992 89.7665 25.96 89.4145 25.96C88.4865 25.96 87.7185 26.312 87.1105 27.016C86.5345 27.72 86.2465 28.68 86.2465 29.896ZM96.4281 37.48C96.0121 37.48 95.6281 37.352 95.2761 37.096C94.9561 36.84 94.7961 36.472 94.7961 35.992V24.472C94.7961 23.928 94.9561 23.528 95.2761 23.272C95.6281 22.984 96.0121 22.84 96.4281 22.84C96.8441 22.84 97.2121 22.984 97.5321 23.272C97.8841 23.528 98.0601 23.928 98.0601 24.472V35.992C98.0601 36.472 97.8841 36.84 97.5321 37.096C97.2121 37.352 96.8441 37.48 96.4281 37.48ZM96.4761 20.2C95.8681 20.2 95.3401 20.008 94.8921 19.624C94.4761 19.208 94.2681 18.712 94.2681 18.136C94.2681 17.592 94.4761 17.128 94.8921 16.744C95.3401 16.328 95.8681 16.12 96.4761 16.12C97.0521 16.12 97.5481 16.328 97.9641 16.744C98.3801 17.128 98.5881 17.592 98.5881 18.136C98.5881 18.712 98.3801 19.208 97.9641 19.624C97.5481 20.008 97.0521 20.2 96.4761 20.2ZM114.015 37.48C113.599 37.48 113.215 37.352 112.863 37.096C112.543 36.84 112.383 36.472 112.383 35.992V29.944C112.383 28.536 112.063 27.496 111.423 26.824C110.815 26.152 109.999 25.816 108.975 25.816C107.663 25.816 106.703 26.248 106.095 27.112C105.519 27.944 105.231 28.872 105.231 29.896V35.992C105.231 36.472 105.055 36.84 104.703 37.096C104.383 37.352 104.015 37.48 103.599 37.48C103.183 37.48 102.799 37.352 102.447 37.096C102.127 36.84 101.967 36.472 101.967 35.992V24.712C101.967 24.168 102.127 23.768 102.447 23.512C102.799 23.224 103.183 23.08 103.599 23.08C104.015 23.08 104.383 23.224 104.703 23.512C105.055 23.768 105.231 24.168 105.231 24.712C105.775 24.168 106.479 23.72 107.343 23.368C108.207 23.016 109.023 22.84 109.791 22.84C111.583 22.84 113.007 23.416 114.063 24.568C115.119 25.72 115.647 27.416 115.647 29.656V35.992C115.647 36.472 115.471 36.84 115.119 37.096C114.767 37.352 114.399 37.48 114.015 37.48ZM124.688 37.48C123.44 37.48 122.416 37.096 121.616 36.328C120.816 35.56 120.416 34.408 120.416 32.872V26.776C120.416 26.456 120.256 26.296 119.936 26.296H119.072C118.656 26.296 118.304 26.168 118.016 25.912C117.728 25.624 117.584 25.272 117.584 24.856C117.584 24.408 117.728 24.04 118.016 23.752C118.304 23.464 118.656 23.32 119.072 23.32H119.936C120.256 23.32 120.416 23.16 120.416 22.84V18.808C120.416 18.36 120.56 18.008 120.848 17.752C121.168 17.464 121.552 17.32 122 17.32C122.48 17.32 122.864 17.464 123.152 17.752C123.472 18.008 123.632 18.36 123.632 18.808V22.84C123.632 23.16 123.792 23.32 124.112 23.32H126.704C127.088 23.32 127.424 23.464 127.712 23.752C128 24.04 128.144 24.408 128.144 24.856C128.144 25.272 128 25.624 127.712 25.912C127.456 26.168 127.104 26.296 126.656 26.296H124.112C123.792 26.296 123.632 26.456 123.632 26.776V32.44C123.632 33.784 124.176 34.456 125.264 34.456C125.584 34.456 125.92 34.408 126.272 34.312C126.624 34.216 126.864 34.168 126.992 34.168C127.44 34.168 127.776 34.312 128 34.6C128.256 34.888 128.384 35.224 128.384 35.608C128.384 35.896 128.304 36.184 128.144 36.472C127.984 36.728 127.728 36.92 127.376 37.048C127.024 37.176 126.576 37.272 126.032 37.336C125.52 37.432 125.072 37.48 124.688 37.48ZM140.731 24.424C140.731 23.976 140.875 23.608 141.163 23.32C141.483 23 141.883 22.84 142.363 22.84C142.811 22.84 143.195 23 143.515 23.32C143.835 23.608 143.995 23.976 143.995 24.424V31.192C143.995 32.632 143.675 33.816 143.035 34.744C142.395 35.672 141.563 36.36 140.539 36.808C139.515 37.256 138.427 37.48 137.275 37.48C136.123 37.48 135.035 37.256 134.011 36.808C132.987 36.36 132.155 35.672 131.515 34.744C130.875 33.816 130.555 32.632 130.555 31.192V24.424C130.555 23.976 130.699 23.608 130.987 23.32C131.307 23 131.707 22.84 132.187 22.84C132.635 22.84 133.019 23 133.339 23.32C133.659 23.608 133.819 23.976 133.819 24.424V31.192C133.819 32.376 134.171 33.224 134.875 33.736C135.579 34.248 136.379 34.504 137.275 34.504C138.203 34.504 139.003 34.248 139.675 33.736C140.379 33.224 140.731 32.376 140.731 31.192V24.424ZM149.208 37.48C148.792 37.48 148.408 37.352 148.056 37.096C147.736 36.84 147.576 36.472 147.576 35.992V24.712C147.576 24.168 147.736 23.768 148.056 23.512C148.408 23.224 148.792 23.08 149.208 23.08C149.528 23.08 149.832 23.16 150.12 23.32C150.408 23.448 150.616 23.688 150.744 24.04C150.808 24.232 150.84 24.408 150.84 24.568C151.32 24.056 151.944 23.64 152.712 23.32C153.48 23 154.232 22.84 154.968 22.84C157.048 22.84 158.584 23.672 159.576 25.336C159.96 24.664 160.584 24.088 161.448 23.608C162.344 23.096 163.432 22.84 164.712 22.84C166.44 22.84 167.816 23.416 168.84 24.568C169.864 25.72 170.376 27.416 170.376 29.656V35.992C170.376 36.472 170.2 36.84 169.848 37.096C169.496 37.352 169.128 37.48 168.744 37.48C168.328 37.48 167.944 37.352 167.592 37.096C167.272 36.84 167.112 36.472 167.112 35.992V29.944C167.112 27.192 166.088 25.816 164.04 25.816C162.888 25.816 162.056 26.12 161.544 26.728C161.032 27.336 160.712 28.056 160.584 28.888V35.992C160.584 36.472 160.408 36.84 160.056 37.096C159.704 37.352 159.336 37.48 158.952 37.48C158.536 37.48 158.152 37.352 157.8 37.096C157.48 36.84 157.32 36.472 157.32 35.992V29.944C157.32 28.536 157.048 27.496 156.504 26.824C155.96 26.152 155.224 25.816 154.296 25.816C152.92 25.816 151.992 26.248 151.512 27.112C151.064 27.944 150.84 28.872 150.84 29.896V35.992C150.84 36.472 150.664 36.84 150.312 37.096C149.992 37.352 149.624 37.48 149.208 37.48ZM180.447 37.48C179.039 37.48 177.759 37.16 176.607 36.52C175.487 35.88 174.607 35 173.967 33.88C173.327 32.728 173.007 31.448 173.007 30.04C173.007 28.664 173.327 27.432 173.967 26.344C174.607 25.256 175.487 24.408 176.607 23.8C177.759 23.16 179.039 22.84 180.447 22.84C181.855 22.84 183.119 23.16 184.239 23.8C185.359 24.408 186.239 25.256 186.879 26.344C187.551 27.432 187.887 28.664 187.887 30.04C187.887 31.448 187.551 32.728 186.879 33.88C186.239 35 185.359 35.88 184.239 36.52C183.119 37.16 181.855 37.48 180.447 37.48ZM180.447 34.504C181.695 34.504 182.703 34.104 183.471 33.304C184.239 32.472 184.623 31.384 184.623 30.04C184.623 28.76 184.239 27.736 183.471 26.968C182.703 26.2 181.695 25.816 180.447 25.816C179.167 25.816 178.143 26.2 177.375 26.968C176.639 27.736 176.271 28.76 176.271 30.04C176.271 31.384 176.639 32.472 177.375 33.304C178.143 34.104 179.167 34.504 180.447 34.504Z" fill="#1E1E1E"/>
</svg>
