<svg width="35" height="35" viewBox="0 0 35 35" fill="none" xmlns="http://www.w3.org/2000/svg">
<path d="M5.25961 30.7014C5.6156 30.7014 5.90325 30.4296 5.90325 30.0933V12.8783C5.90325 12.5435 6.19089 12.2702 6.54688 12.2702H13.603C14.2339 12.2372 15.4878 12.3708 16.4032 12.569C17.0373 12.6531 18.1386 13.1065 18.8601 13.584C19.3829 13.8437 20.1632 14.695 20.6034 15.4832C21.0437 16.273 21.263 17.2669 21.263 18.4635C21.3377 19.2758 21.0468 20.5805 20.6162 21.3792C20.381 21.9542 19.6118 22.828 18.8982 23.331C18.466 23.7094 17.3662 24.1988 16.4413 24.424C15.5164 24.6492 14.5692 24.7633 13.6014 24.7633H12.7321C12.3777 24.7633 12.0885 25.0351 12.0885 25.3714V30.0903C12.0885 30.4251 12.3761 30.6984 12.7321 30.6984H23.7676C24.122 30.6984 24.6162 30.5077 24.8689 30.272L31.5881 24.0157C31.8408 23.7799 32.0458 23.3175 32.0458 22.9812V4.90591C32.0458 4.5696 31.7581 4.29785 31.4021 4.29785H13.1945C12.8386 4.29785 12.2887 4.41045 11.9661 4.55008L2.92665 8.4432C2.60404 8.58283 2.34182 8.96718 2.34182 9.30349V30.0933C2.34182 30.4281 2.62947 30.7014 2.98545 30.7014H5.25961Z" fill="#1E1E1E" stroke="#1E1E1E" stroke-width="1.65022" stroke-linecap="round" stroke-linejoin="round"/>
</svg>
