<svg width="23" height="23" viewBox="0 0 23 23" fill="none" xmlns="http://www.w3.org/2000/svg">
<g clip-path="url(#clip0_1947_3328)">
<path d="M11.5 23.0001C17.8513 23.0001 23 17.8514 23 11.5001C23 5.14885 17.8513 0.00012207 11.5 0.00012207C5.14873 0.00012207 0 5.14885 0 11.5001C0 17.8514 5.14873 23.0001 11.5 23.0001Z" fill="#F0F0F0"/>
<path d="M11.4996 0.00012207C6.55496 0.00012207 2.33971 3.12093 0.714844 7.50014H22.2843C20.6594 3.12093 16.4441 0.00012207 11.4996 0.00012207Z" fill="#A2001D"/>
<path d="M11.4996 23.0001C16.4441 23.0001 20.6594 19.8793 22.2843 15.5001H0.714844C2.33971 19.8793 6.55496 23.0001 11.4996 23.0001Z" fill="#0052B4"/>
</g>
<defs>
<clipPath id="clip0_1947_3328">
<rect width="23" height="23" fill="white"/>
</clipPath>
</defs>
</svg>
