<svg width="23" height="23" viewBox="0 0 23 23" fill="none" xmlns="http://www.w3.org/2000/svg">
<g clip-path="url(#clip0_1947_3331)">
<path d="M11.5 23.0001C17.8513 23.0001 23 17.8514 23 11.5001C23 5.14885 17.8513 0.00012207 11.5 0.00012207C5.14873 0.00012207 0 5.14885 0 11.5001C0 17.8514 5.14873 23.0001 11.5 23.0001Z" fill="#F0F0F0"/>
<path d="M0.396484 14.5001C1.06187 16.969 2.52834 19.1088 4.50032 20.624V14.5001H0.396484Z" fill="#D80027"/>
<path d="M10.5 22.9564C10.8296 22.9847 11.163 23.0001 11.5 23.0001C16.8133 23.0001 21.2842 19.3964 22.6038 14.5001H10.5V22.9564Z" fill="#D80027"/>
<path d="M22.6038 8.5001C21.2842 3.6038 16.8133 0.00012207 11.5 0.00012207C11.163 0.00012207 10.8296 0.0154854 10.5 0.043876V8.5001H22.6038Z" fill="#D80027"/>
<path d="M4.50032 2.37622C2.52834 3.89144 1.06187 6.0312 0.396484 8.50006H4.50032V2.37622Z" fill="#D80027"/>
<path d="M22.9027 10.0001H9.00005H9.00001V0.273438C7.93725 0.509098 6.92969 0.891068 5.99999 1.39837V10V10.0001H0.0973457C0.033332 10.4911 0 10.9917 0 11.5001C0 12.0085 0.033332 12.5091 0.0973457 13.0001H5.99995H5.99999V21.6018C6.92969 22.109 7.93725 22.4911 9.00001 22.7267V13.0002V13.0001H22.9027C22.9666 12.5091 23 12.0085 23 11.5001C23 10.9917 22.9666 10.4911 22.9027 10.0001Z" fill="#0052B4"/>
</g>
<defs>
<clipPath id="clip0_1947_3331">
<rect width="23" height="23" fill="white"/>
</clipPath>
</defs>
</svg>
