<svg width="23" height="23" viewBox="0 0 23 23" fill="none" xmlns="http://www.w3.org/2000/svg">
<g clip-path="url(#clip0_1947_3341)">
<path d="M0 11.5002C0 16.4447 3.12081 20.66 7.49993 22.2848L8.49998 11.5001L7.49993 0.715454C3.12081 2.34037 0 6.55557 0 11.5002Z" fill="#6DA544"/>
<path d="M23.0001 11.5001C23.0001 5.14889 17.8513 0.00012207 11.5001 0.00012207C10.0934 0.00012207 8.74586 0.253167 7.5 0.715413V22.2848C8.74586 22.7471 10.0934 23.0001 11.5001 23.0001C17.8513 23.0001 23.0001 17.8514 23.0001 11.5001Z" fill="#D80027"/>
<path d="M7.49998 15.5001C9.70911 15.5001 11.5 13.7092 11.5 11.5001C11.5 9.29097 9.70911 7.50012 7.49998 7.50012C5.29085 7.50012 3.5 9.29097 3.5 11.5001C3.5 13.7092 5.29085 15.5001 7.49998 15.5001Z" fill="#FFDA44"/>
<path d="M5.25 9.50012V12.0001C5.25 13.2427 6.25733 14.2501 7.5 14.2501C8.74268 14.2501 9.75 13.2428 9.75 12.0001V9.50012H5.25Z" fill="#D80027"/>
<path d="M7.50002 12.7501C7.08646 12.7501 6.75 12.4136 6.75 12.0001V11.0001H8.24999V12.0001C8.24999 12.4136 7.91352 12.7501 7.50002 12.7501Z" fill="#F0F0F0"/>
</g>
<defs>
<clipPath id="clip0_1947_3341">
<rect width="23" height="23" fill="white"/>
</clipPath>
</defs>
</svg>
