<svg width="237" height="225" viewBox="0 0 237 225" fill="none" xmlns="http://www.w3.org/2000/svg">
<g filter="url(#filter0_d_1932_2143)">
<path d="M191.133 41.1071C191.007 39.9785 190.584 38.9034 189.907 37.9917C189.23 37.0799 188.324 36.3641 187.28 35.9174C174.768 30.6152 161.014 28.9543 147.6 31.1261C134.186 33.2978 121.658 39.2139 111.459 48.193L103.147 55.5443L87.2148 49.1165C83.4053 47.1227 79.003 46.5746 74.8209 47.5736C70.6388 48.5725 66.9594 51.0509 64.4622 54.5511L46.8519 77.2238C46.2349 78.018 45.8134 78.9461 45.6214 79.9333C45.4295 80.9205 45.4724 81.9389 45.7469 82.9064C46.0213 83.8739 46.5195 84.7632 47.2012 85.5026C47.8829 86.2419 48.729 86.8105 49.6711 87.1624L68.5425 94.2204C66.1489 99.0019 64.2062 103.996 62.7397 109.138C62.472 110.083 62.4249 111.077 62.602 112.043C62.779 113.009 63.1756 113.922 63.7612 114.71L80.5176 137.278C81.0192 137.954 81.6492 138.525 82.3715 138.958C83.0938 139.39 83.8942 139.676 84.7271 139.799C84.9098 139.826 85.094 139.844 85.2821 139.856C90.7149 140.166 96.1652 139.908 101.544 139.084L102.812 158.735C102.876 159.738 103.176 160.712 103.687 161.578C104.198 162.444 104.905 163.178 105.752 163.721C106.598 164.263 107.561 164.599 108.561 164.701C109.561 164.803 110.571 164.669 111.51 164.308L138.344 153.999C142.143 152.396 145.335 149.627 147.459 146.093C149.583 142.559 150.529 138.441 150.162 134.334L148.507 116.208L157.419 110.153C168.999 103.017 178.315 92.7398 184.284 80.5167C190.252 68.2937 192.627 54.6272 191.133 41.1071ZM62.3242 78.2035L74.781 62.1585C75.5696 61.0607 76.7484 60.3064 78.0755 60.05C79.4026 59.7936 80.7775 60.0547 81.9183 60.7797L92.4208 65.0293L87.5748 69.3151C82.9739 73.4218 78.8396 78.023 75.2466 83.0354L62.3242 78.2035ZM133.709 142.042L115.049 149.211L114.203 136.094C120.132 134.156 125.787 131.463 131.029 128.082L136.385 124.443L137.384 135.379C137.523 136.731 137.246 138.094 136.589 139.285C135.932 140.476 134.928 141.438 133.709 142.042ZM150.477 99.3774L123.933 117.401C113.501 124.033 101.34 127.432 88.9801 127.169L75.9846 109.666C79.8306 97.8033 86.7717 87.1819 96.092 78.8971L108.605 67.8317C108.81 67.6724 109.004 67.5004 109.187 67.3166L119.885 57.8561C127.789 50.9028 137.397 46.1716 147.727 44.1457C158.057 42.1197 168.74 42.8716 178.685 46.3245C179.155 56.8818 176.787 67.3722 171.826 76.7031C166.865 86.0339 159.492 93.8639 150.477 99.3774ZM150.4 59.4186C148.519 59.1405 146.597 59.4266 144.878 60.2408C143.159 61.0549 141.72 62.3606 140.743 63.9926C139.766 65.6245 139.295 67.5096 139.389 69.4093C139.483 71.3091 140.139 73.1382 141.273 74.6653C142.407 76.1925 143.968 77.3491 145.759 77.9889C147.55 78.6288 149.491 78.7231 151.336 78.2599C153.181 77.7968 154.847 76.797 156.123 75.3869C157.4 73.9769 158.23 72.22 158.508 70.3384C158.693 69.0889 158.63 67.8154 158.322 66.5904C158.015 65.3654 157.469 64.213 156.716 63.199C155.963 62.185 155.018 61.3292 153.934 60.6805C152.85 60.0318 151.649 59.603 150.4 59.4184L150.4 59.4186Z" fill="#7B53E7"/>
</g>
<defs>
<filter id="filter0_d_1932_2143" x="0.503906" y="0.19873" width="236.064" height="224.536" filterUnits="userSpaceOnUse" color-interpolation-filters="sRGB">
<feFlood flood-opacity="0" result="BackgroundImageFix"/>
<feColorMatrix in="SourceAlpha" type="matrix" values="0 0 0 0 0 0 0 0 0 0 0 0 0 0 0 0 0 0 127 0" result="hardAlpha"/>
<feOffset dy="15"/>
<feGaussianBlur stdDeviation="22.5"/>
<feComposite in2="hardAlpha" operator="out"/>
<feColorMatrix type="matrix" values="0 0 0 0 0.482353 0 0 0 0 0.32549 0 0 0 0 0.905882 0 0 0 0.65 0"/>
<feBlend mode="normal" in2="BackgroundImageFix" result="effect1_dropShadow_1932_2143"/>
<feBlend mode="normal" in="SourceGraphic" in2="effect1_dropShadow_1932_2143" result="shape"/>
</filter>
</defs>
</svg>
