<svg width="23" height="23" viewBox="0 0 23 23" fill="none" xmlns="http://www.w3.org/2000/svg">
<g clip-path="url(#clip0_1947_3344)">
<path d="M15.5 0.715368C14.2541 0.253167 12.9067 0.000122076 11.5 0.000122076C10.0933 7.71544e-05 8.74582 0.253167 7.50001 0.715368L6.5 11.5001L7.50001 22.2848C8.74578 22.7471 10.0933 23.0001 11.5 23.0001C12.9066 23.0001 14.2541 22.7471 15.5 22.2848L16.4999 11.5001L15.5 0.715368Z" fill="#FFDA44"/>
<path d="M23 11.5002C23 6.55561 19.8792 2.34028 15.5 0.715454V22.285C19.8792 20.66 23 16.4448 23 11.5002Z" fill="#D80027"/>
<path d="M0 11.5001C0 16.4448 3.12081 20.6599 7.49993 22.2849L7.49998 0.715454C3.12081 2.34028 0 6.55548 0 11.5001H0Z" fill="#0052B4"/>
</g>
<defs>
<clipPath id="clip0_1947_3344">
<rect width="23" height="23" fill="white"/>
</clipPath>
</defs>
</svg>
