<svg width="23" height="23" viewBox="0 0 23 23" fill="none" xmlns="http://www.w3.org/2000/svg">
<g clip-path="url(#clip0_1947_3347)">
<path d="M11.5 23.0001C17.8513 23.0001 23 17.8514 23 11.5001C23 5.14885 17.8513 0.00012207 11.5 0.00012207C5.14873 0.00012207 0 5.14885 0 11.5001C0 17.8514 5.14873 23.0001 11.5 23.0001Z" fill="#F0F0F0"/>
<path d="M11.5 23.0001C17.8512 23.0001 23 17.8513 23 11.5001C23 10.0934 22.747 8.7459 22.2847 7.50012H0.715291C0.253045 8.7459 0 10.0934 0 11.5001C0 17.8513 5.14877 23.0001 11.5 23.0001Z" fill="#0052B4"/>
<path d="M11.4996 23.0001C16.4441 23.0001 20.6594 19.8793 22.2843 15.5001H0.714844C2.33971 19.8793 6.55496 23.0001 11.4996 23.0001Z" fill="#D80027"/>
<path d="M2.97461 6.50012V12.2369C2.97461 15.5002 7.23774 16.5001 7.23774 16.5001C7.23774 16.5001 11.5008 15.5002 11.5008 12.2369V6.50012H2.97461Z" fill="#F0F0F0"/>
<path d="M3.97461 6.50012V12.2369C3.97461 12.62 4.05969 12.9818 4.22824 13.321H10.2472C10.4157 12.9819 10.5008 12.62 10.5008 12.2369V6.50012H3.97461Z" fill="#D80027"/>
<path d="M9.23631 10.5001H7.73636V9.50009H8.73637V8.50008H7.73636V7.50012H6.73636V8.50008H5.7364V9.50009H6.73636V10.5001H5.23633V11.5001H6.73636V12.5001H7.73636V11.5001H9.23631V10.5001Z" fill="#F0F0F0"/>
<path d="M5.59053 14.717C6.23493 15.1219 6.89699 15.357 7.23592 15.4616C7.57486 15.3571 8.23692 15.1219 8.88132 14.717C9.53116 14.3085 9.98671 13.8414 10.2454 13.321C9.96008 13.1192 9.61198 13.0001 9.23594 13.0001C9.09901 13.0001 8.966 13.0163 8.83811 13.0461C8.56709 12.4303 7.95189 12.0001 7.23597 12.0001C6.52005 12.0001 5.9048 12.4303 5.63383 13.0461C5.50594 13.0163 5.37288 13.0001 5.236 13.0001C4.85996 13.0001 4.51186 13.1192 4.22656 13.321C4.48509 13.8414 4.94064 14.3085 5.59053 14.717Z" fill="#0052B4"/>
</g>
<defs>
<clipPath id="clip0_1947_3347">
<rect width="23" height="23" fill="white"/>
</clipPath>
</defs>
</svg>
