<svg width="23" height="23" viewBox="0 0 23 23" fill="none" xmlns="http://www.w3.org/2000/svg">
<g clip-path="url(#clip0_1947_3350)">
<path d="M11.5 23.0001C17.8513 23.0001 23 17.8514 23 11.5001C23 5.14885 17.8513 0.00012207 11.5 0.00012207C5.14873 0.00012207 0 5.14885 0 11.5001C0 17.8514 5.14873 23.0001 11.5 23.0001Z" fill="#F0F0F0"/>
<path d="M22.2847 7.50014H10V4.50012H3.99998V7.50014H0.715291C0.253045 8.74591 0 10.0934 0 11.5001C0 12.9068 0.253045 14.2543 0.715291 15.5001L11.5 16.5001L22.2847 15.5001C22.747 14.2543 23 12.9068 23 11.5001C23 10.0934 22.747 8.74591 22.2847 7.50014Z" fill="#0052B4"/>
<path d="M11.4996 23.0001C16.4441 23.0001 20.6594 19.8793 22.2843 15.5001H0.714844C2.33971 19.8793 6.55496 23.0001 11.4996 23.0001Z" fill="#D80027"/>
<path d="M4 7.5001V8.50006C4 10.7965 7.00002 11.5001 7.00002 11.5001C7.00002 11.5001 10 10.7965 10 8.50006V7.5001L9.00003 8.50011L7.00002 7.00012L5.00001 8.50011L4 7.5001Z" fill="#F0F0F0"/>
</g>
<defs>
<clipPath id="clip0_1947_3350">
<rect width="23" height="23" fill="white"/>
</clipPath>
</defs>
</svg>
