<svg width="23" height="23" viewBox="0 0 23 23" fill="none" xmlns="http://www.w3.org/2000/svg">
<g clip-path="url(#clip0_1947_3356)">
<path d="M11.5 23.0001C17.8513 23.0001 23 17.8514 23 11.5001C23 5.14885 17.8513 0.00012207 11.5 0.00012207C5.14873 0.00012207 0 5.14885 0 11.5001C0 17.8514 5.14873 23.0001 11.5 23.0001Z" fill="#FFDA44"/>
<path d="M9.00004 10.0001H22.9026C22.1676 4.35763 17.3428 0.00012207 11.5 0.00012207C10.6414 0.00012207 9.80496 0.095042 9 0.273472V10.0001H9.00004Z" fill="#0052B4"/>
<path d="M6.0003 10.0001V1.39844C2.84256 3.12137 0.582049 6.28167 0.0976562 10.0002H6.0003V10.0001Z" fill="#0052B4"/>
<path d="M6.00026 13.0001H0.0976562C0.582049 16.7186 2.84256 19.8789 6.0003 21.6018L6.00026 13.0001Z" fill="#0052B4"/>
<path d="M9 13.0002V22.7268C9.80496 22.9052 10.6414 23.0001 11.5 23.0001C17.3428 23.0001 22.1676 18.6426 22.9026 13.0001H9V13.0002Z" fill="#0052B4"/>
</g>
<defs>
<clipPath id="clip0_1947_3356">
<rect width="23" height="23" fill="white"/>
</clipPath>
</defs>
</svg>
