<svg width="23" height="23" viewBox="0 0 23 23" fill="none" xmlns="http://www.w3.org/2000/svg">
<g clip-path="url(#clip0_1947_3334)">
<path d="M11.5 23.0001C17.8513 23.0001 23 17.8514 23 11.5001C23 5.14885 17.8513 0.00012207 11.5 0.00012207C5.14873 0.00012207 0 5.14885 0 11.5001C0 17.8514 5.14873 23.0001 11.5 23.0001Z" fill="#F0F0F0"/>
<path d="M11 11.5001H23C23 10.4622 22.8616 9.45664 22.6038 8.50012H11V11.5001Z" fill="#D80027"/>
<path d="M11 5.50014H21.3121C20.6081 4.3514 19.708 3.33603 18.6586 2.50012H11V5.50014Z" fill="#D80027"/>
<path d="M11.5004 23.0001C14.2069 23.0001 16.6945 22.0647 18.6589 20.5001H4.3418C6.30623 22.0647 8.79387 23.0001 11.5004 23.0001Z" fill="#D80027"/>
<path d="M1.68821 17.5001H21.3124C21.8776 16.5779 22.3159 15.5699 22.6042 14.5001H0.396484C0.684748 15.5699 1.12305 16.5779 1.68821 17.5001Z" fill="#D80027"/>
<path d="M5.32702 1.79601H6.375L5.40019 2.5042L5.77255 3.65011L4.79779 2.94192L3.82303 3.65011L4.14467 2.66017C3.28639 3.3751 2.53413 4.21272 1.91421 5.14601H2.25L1.6295 5.5968C1.53282 5.75807 1.44011 5.9219 1.35125 6.08816L1.64755 7.00012L1.09475 6.59847C0.95733 6.88961 0.831639 7.18731 0.71866 7.4912L1.04511 8.49602H2.25L1.2752 9.20421L1.64755 10.3501L0.672795 9.64193L0.0889004 10.0662C0.030457 10.536 0 11.0145 0 11.5001H11.5C11.5 5.14889 11.5 4.40013 11.5 0.00012207C9.22821 0.00012207 7.11046 0.659126 5.32702 1.79601ZM5.77255 10.3501L4.79779 9.64193L3.82303 10.3501L4.19539 9.20421L3.22058 8.49602H4.42548L4.79779 7.3501L5.1701 8.49602H6.375L5.40019 9.20421L5.77255 10.3501ZM5.40019 5.85421L5.77255 7.00012L4.79779 6.29192L3.82303 7.00012L4.19539 5.85421L3.22058 5.14601H4.42548L4.79779 4.0001L5.1701 5.14601H6.375L5.40019 5.85421ZM9.89755 10.3501L8.92279 9.64193L7.94803 10.3501L8.32038 9.20421L7.34558 8.49602H8.55048L8.92279 7.3501L9.2951 8.49602H10.5L9.52519 9.20421L9.89755 10.3501ZM9.52519 5.85421L9.89755 7.00012L8.92279 6.29192L7.94803 7.00012L8.32038 5.85421L7.34558 5.14601H8.55048L8.92279 4.0001L9.2951 5.14601H10.5L9.52519 5.85421ZM9.52519 2.5042L9.89755 3.65011L8.92279 2.94192L7.94803 3.65011L8.32038 2.5042L7.34558 1.79601H8.55048L8.92279 0.650097L9.2951 1.79601H10.5L9.52519 2.5042Z" fill="#0052B4"/>
</g>
<defs>
<clipPath id="clip0_1947_3334">
<rect width="23" height="23" fill="white"/>
</clipPath>
</defs>
</svg>
