<svg width="23" height="23" viewBox="0 0 23 23" fill="none" xmlns="http://www.w3.org/2000/svg">
<g clip-path="url(#clip0_1947_3362)">
<path d="M11.5 23.0001C17.8513 23.0001 23 17.8514 23 11.5001C23 5.14885 17.8513 0.00012207 11.5 0.00012207C5.14873 0.00012207 0 5.14885 0 11.5001C0 17.8514 5.14873 23.0001 11.5 23.0001Z" fill="#F0F0F0"/>
<path d="M2.37758 4.49866C1.47425 5.67395 0.7931 7.02857 0.396484 8.50016H6.37909L2.37758 4.49866Z" fill="#0052B4"/>
<path d="M22.6036 8.50012C22.207 7.02857 21.5258 5.67395 20.6225 4.49866L16.6211 8.50012H22.6036Z" fill="#0052B4"/>
<path d="M0.396484 14.5001C0.793145 15.9717 1.47429 17.3263 2.37758 18.5015L6.37896 14.5001H0.396484Z" fill="#0052B4"/>
<path d="M18.5015 2.37738C17.3262 1.47405 15.9716 0.7929 14.5 0.39624V6.3788L18.5015 2.37738Z" fill="#0052B4"/>
<path d="M4.49805 20.6227C5.67334 21.526 7.02796 22.2072 8.49951 22.6039V16.6213L4.49805 20.6227Z" fill="#0052B4"/>
<path d="M8.49946 0.39624C7.02791 0.7929 5.67329 1.47405 4.49805 2.37734L8.49946 6.37876V0.39624Z" fill="#0052B4"/>
<path d="M14.5 22.6039C15.9716 22.2072 17.3262 21.526 18.5014 20.6228L14.5 16.6213V22.6039Z" fill="#0052B4"/>
<path d="M16.6211 14.5001L20.6225 18.5016C21.5258 17.3263 22.207 15.9717 22.6036 14.5001H16.6211Z" fill="#0052B4"/>
<path d="M22.9027 10.0001H13.0001H13V0.0974678C12.509 0.0335439 12.0084 0.00012207 11.5 0.00012207C10.9915 0.00012207 10.491 0.0335439 10 0.0974678V10V10.0001H0.0973457C0.0334219 10.4911 0 10.9917 0 11.5001C0 12.0086 0.0334219 12.5091 0.0973457 13.0001H9.99992H9.99997V22.9028C10.491 22.9667 10.9915 23.0001 11.5 23.0001C12.0084 23.0001 12.509 22.9667 13 22.9028V13.0002V13.0002H22.9027C22.9666 12.5091 23 12.0086 23 11.5001C23 10.9917 22.9666 10.4911 22.9027 10.0001Z" fill="#D80027"/>
<path d="M14.5 14.5002L19.6317 19.6319C19.8677 19.3959 20.0929 19.1493 20.3077 18.8936L15.9142 14.5001H14.5V14.5002Z" fill="#D80027"/>
<path d="M8.50088 14.5002H8.50079L3.36914 19.6319C3.60507 19.8679 3.85174 20.0931 4.10743 20.3079L8.50088 15.9143V14.5002Z" fill="#D80027"/>
<path d="M8.49909 8.50024V8.50015L3.36739 3.36841C3.13137 3.60434 2.90622 3.851 2.69141 4.1067L7.0849 8.50019H8.49909V8.50024Z" fill="#D80027"/>
<path d="M14.5 8.50023L19.6317 3.36844C19.3958 3.13242 19.1491 2.90728 18.8934 2.6925L14.5 7.086V8.50023Z" fill="#D80027"/>
</g>
<defs>
<clipPath id="clip0_1947_3362">
<rect width="23" height="23" fill="white"/>
</clipPath>
</defs>
</svg>
