<svg width="24" height="24" viewBox="0 0 24 24" fill="none" xmlns="http://www.w3.org/2000/svg">
<path fill-rule="evenodd" clip-rule="evenodd" d="M12 22C6.48 22 2 17.51 2 12C2 6.48 6.48 2 12 2C17.51 2 22 6.48 22 12C22 17.51 17.51 22 12 22ZM16.2341 9.46023C15.8714 9.11128 15.3032 9.11128 14.9527 9.47227L11.3986 13.022L9.05339 10.6756C8.70282 10.3146 8.12257 10.3146 7.77199 10.6635C7.40934 11.0245 7.40934 11.5901 7.77199 11.939L10.7579 14.9353C10.9271 15.1037 11.1568 15.2 11.3986 15.2C11.6404 15.2 11.87 15.1037 12.0393 14.9353L16.2341 10.7357C16.4154 10.5673 16.5 10.3386 16.5 10.11C16.5 9.86936 16.4154 9.64073 16.2341 9.46023Z" fill="white"/>
</svg>
