<svg width="303" height="271" viewBox="0 0 303 271" fill="none" xmlns="http://www.w3.org/2000/svg">
<path d="M36.8815 262.5C40.3061 262.5 43.0732 259.885 43.0732 256.65V91.0437C43.0732 87.8226 45.8404 85.1937 49.2649 85.1937H117.144C123.213 84.8762 135.276 86.1613 144.082 88.0679C150.182 88.8767 160.777 93.2392 167.717 97.8318C172.747 100.331 180.254 108.52 184.488 116.102C188.723 123.7 190.833 133.262 190.833 144.773C191.551 152.586 188.754 165.138 184.61 172.821C182.348 178.353 174.948 186.76 168.084 191.598C163.925 195.238 153.346 199.946 144.448 202.112C135.551 204.279 126.439 205.377 117.129 205.377H108.766C105.357 205.377 102.575 207.991 102.575 211.226V256.621C102.575 259.843 105.342 262.471 108.766 262.471H214.927C218.336 262.471 223.091 260.637 225.521 258.369L290.159 198.184C292.591 195.916 294.562 191.468 294.562 188.233V14.3491C294.562 11.1138 291.795 8.5 288.371 8.5H113.215C109.791 8.5 104.5 9.58347 101.398 10.9265L14.4386 48.378C11.3351 49.721 8.81256 53.4183 8.81256 56.6536V256.65C8.81256 259.871 11.5797 262.5 15.0043 262.5H36.8815Z" fill="#1E1E1E" stroke="#1E1E1E" stroke-width="15.875" stroke-linecap="round" stroke-linejoin="round"/>
</svg>
