<svg width="10" height="20" viewBox="0 0 10 20" fill="none" xmlns="http://www.w3.org/2000/svg">
<path d="M2.09808e-05 9.95437C-0.000929832 10.1431 0.0305853 10.3302 0.0927591 10.505C0.154933 10.6797 0.246542 10.8387 0.362334 10.9727L7.85848 19.5782C8.09374 19.8483 8.41282 20 8.74553 20C9.07824 20 9.39732 19.8483 9.63257 19.5782C9.86783 19.3081 10 18.9418 10 18.5599C10 18.1779 9.86783 17.8116 9.63257 17.5416L3.01097 9.95437L9.62008 2.36717C9.82476 2.0928 9.93171 1.73986 9.91957 1.37889C9.90742 1.01793 9.77707 0.675514 9.55457 0.420082C9.33206 0.16465 9.03379 0.0150127 8.71936 0.00107002C8.40493 -0.0128727 8.09749 0.109907 7.85848 0.344875L0.362334 8.95039C0.131523 9.21753 0.00140095 9.5781 2.09808e-05 9.95437Z" fill="black"/>
</svg>
