<svg width="10" height="20" viewBox="0 0 10 20" fill="none" xmlns="http://www.w3.org/2000/svg">
<path d="M9.99998 9.95437C10.0009 10.1431 9.96941 10.3302 9.90724 10.505C9.84507 10.6797 9.75346 10.8387 9.63767 10.9727L2.14152 19.5782C1.90626 19.8483 1.58718 20 1.25447 20C0.921764 20 0.602685 19.8483 0.367426 19.5782C0.132167 19.3081 0 18.9418 0 18.5599C0 18.1779 0.132167 17.8116 0.367426 17.5416L6.98903 9.95437L0.37992 2.36717C0.175242 2.0928 0.0682887 1.73986 0.0804339 1.37889C0.0925791 1.01793 0.222928 0.675514 0.445432 0.420082C0.667936 0.16465 0.966207 0.0150127 1.28064 0.00107002C1.59507 -0.0128727 1.90251 0.109907 2.14152 0.344875L9.63767 8.95039C9.86848 9.21753 9.9986 9.5781 9.99998 9.95437Z" fill="black"/>
</svg>
