<svg width="24" height="48" viewBox="0 0 24 48" fill="none" xmlns="http://www.w3.org/2000/svg">
<path d="M23.9999 24.1095C24.0022 23.6565 23.9266 23.2074 23.7774 22.788C23.6282 22.3686 23.4083 21.9872 23.1304 21.6656L5.13964 1.01232C4.57501 0.364144 3.80922 0 3.01073 0C2.21223 0 1.44644 0.364144 0.881822 1.01232C0.317201 1.6605 0 2.53962 0 3.45629C0 4.37295 0.317201 5.25208 0.881822 5.90026L16.7737 24.1095L0.911807 42.3188C0.420581 42.9773 0.163893 43.8243 0.193041 44.6907C0.22219 45.557 0.535028 46.3788 1.06904 46.9918C1.60305 47.6048 2.3189 47.964 3.07354 47.9974C3.82818 48.0309 4.56603 47.7362 5.13964 47.1723L23.1304 26.5191C23.6843 25.8779 23.9966 25.0126 23.9999 24.1095Z" fill="white"/>
</svg>
