<svg width="24" height="48" viewBox="0 0 24 48" fill="none" xmlns="http://www.w3.org/2000/svg">
<path d="M5.14984e-05 24.1095C-0.00222969 23.6565 0.0734062 23.2074 0.222624 22.788C0.371841 22.3686 0.591703 21.9872 0.869604 21.6656L18.8604 1.01232C19.425 0.364144 20.1908 0 20.9893 0C21.7878 0 22.5536 0.364144 23.1182 1.01232C23.6828 1.6605 24 2.53962 24 3.45629C24 4.37295 23.6828 5.25208 23.1182 5.90026L7.22634 24.1095L23.0882 42.3188C23.5794 42.9773 23.8361 43.8243 23.807 44.6907C23.7778 45.557 23.465 46.3788 22.931 46.9918C22.397 47.6048 21.6811 47.964 20.9265 47.9974C20.1718 48.0309 19.434 47.7362 18.8604 47.1723L0.869604 26.5191C0.315657 25.8779 0.00336456 25.0126 5.14984e-05 24.1095Z" fill="white"/>
</svg>
