<svg width="22" height="22" viewBox="0 0 22 22" fill="none" xmlns="http://www.w3.org/2000/svg">
<path d="M12.9077 8.47803H9.90771V5.47803C9.90771 5.27911 9.8287 5.08835 9.68804 4.9477C9.54739 4.80705 9.35663 4.72803 9.15771 4.72803C8.9588 4.72803 8.76804 4.80705 8.62738 4.9477C8.48673 5.08835 8.40771 5.27911 8.40771 5.47803V8.47803H5.40771C5.2088 8.47803 5.01804 8.55705 4.87738 8.6977C4.73673 8.83835 4.65771 9.02912 4.65771 9.22803C4.65771 9.42694 4.73673 9.6177 4.87738 9.75836C5.01804 9.89901 5.2088 9.97803 5.40771 9.97803H8.40771V12.978C8.40771 13.1769 8.48673 13.3677 8.62738 13.5084C8.76804 13.649 8.9588 13.728 9.15771 13.728C9.35663 13.728 9.54739 13.649 9.68804 13.5084C9.8287 13.3677 9.90771 13.1769 9.90771 12.978V9.97803H12.9077C13.1066 9.97803 13.2974 9.89901 13.438 9.75836C13.5787 9.6177 13.6577 9.42694 13.6577 9.22803C13.6577 9.02912 13.5787 8.83835 13.438 8.6977C13.2974 8.55705 13.1066 8.47803 12.9077 8.47803Z" fill="white"/>
<path d="M20.9401 19.9454L16.0201 15.0329C17.52 13.2602 18.2767 10.9763 18.1319 8.65862C17.9871 6.34098 16.9521 4.16899 15.2433 2.59667C13.5344 1.02434 11.2839 0.173388 8.96227 0.221675C6.64061 0.269961 4.42747 1.21375 2.78546 2.85577C1.14344 4.49778 0.199649 6.71093 0.151362 9.03259C0.103076 11.3542 0.954032 13.6047 2.52635 15.3136C4.09868 17.0225 6.27067 18.0574 8.58831 18.2022C10.906 18.347 13.1899 17.5903 14.9626 16.0904L19.8751 21.0104C19.9448 21.0807 20.0278 21.1365 20.1192 21.1746C20.2106 21.2127 20.3086 21.2323 20.4076 21.2323C20.5066 21.2323 20.6047 21.2127 20.6961 21.1746C20.7875 21.1365 20.8704 21.0807 20.9401 21.0104C21.0104 20.9407 21.0662 20.8578 21.1043 20.7664C21.1424 20.675 21.162 20.5769 21.162 20.4779C21.162 20.3789 21.1424 20.2809 21.1043 20.1895C21.0662 20.0981 21.0104 20.0152 20.9401 19.9454ZM1.65762 9.22794C1.65613 7.99412 1.95904 6.779 2.53953 5.69026C3.12001 4.60153 3.96012 3.67282 4.9854 2.98645C6.01069 2.30009 7.18946 1.87727 8.41725 1.75547C9.64504 1.63368 10.8839 1.81666 12.0241 2.28822C13.1642 2.75977 14.1704 3.50533 14.9535 4.4588C15.7365 5.41227 16.2723 6.5442 16.5132 7.75426C16.7542 8.96432 16.6929 10.2151 16.3347 11.3958C15.9766 12.5765 15.3327 13.6506 14.4601 14.5229C13.4117 15.5711 12.0761 16.285 10.6222 16.5745C9.16825 16.8639 7.66112 16.7161 6.29118 16.1495C4.92123 15.5829 3.74993 14.623 2.92523 13.3911C2.10053 12.1591 1.65942 10.7104 1.65762 9.22794Z" fill="white"/>
</svg>
